<svg width="70" height="65" viewBox="0 0 70 65" fill="none" xmlns="http://www.w3.org/2000/svg">
<path fill-rule="evenodd" clip-rule="evenodd" d="M56.0178 12.075C56.6646 12.5925 56.7695 13.5365 56.252 14.1833L47.0503 25.6849C46.5328 26.3318 45.5888 26.4367 44.942 25.9191C44.2951 25.4016 44.1902 24.4577 44.7077 23.8108L53.9094 12.3092C54.4269 11.6623 55.3709 11.5575 56.0178 12.075Z" fill="black"/>
<path fill-rule="evenodd" clip-rule="evenodd" d="M31.573 21.6421C31.9094 20.8851 32.7959 20.5441 33.5529 20.8805L41.7613 24.528C42.5183 24.8644 42.8593 25.7508 42.5229 26.5078C42.1865 27.2649 41.3001 27.6059 40.5431 27.2695L32.3347 23.622C31.5776 23.2856 31.2366 22.3992 31.573 21.6421Z" fill="black"/>
<path fill-rule="evenodd" clip-rule="evenodd" d="M28.7886 21.8133C29.2148 22.5237 28.9844 23.445 28.274 23.8712L15.5477 31.5062C14.8373 31.9324 13.9159 31.702 13.4897 30.9916C13.0635 30.2812 13.2939 29.3598 14.0043 28.9336L26.7306 21.2987C27.441 20.8725 28.3624 21.1029 28.7886 21.8133Z" fill="black"/>
<path fill-rule="evenodd" clip-rule="evenodd" d="M56.1277 34.8941C56.53 35.6183 56.2691 36.5315 55.5449 36.9337L45.8373 42.3261C45.1131 42.7284 44.2 42.4674 43.7977 41.7432C43.3954 41.019 43.6564 40.1059 44.3806 39.7036L54.0881 34.3112C54.8123 33.9089 55.7255 34.1699 56.1277 34.8941Z" fill="black"/>
<path fill-rule="evenodd" clip-rule="evenodd" d="M28.636 42.5079C28.636 41.6795 29.3076 41.0079 30.136 41.0079H39.352C40.1804 41.0079 40.852 41.6795 40.852 42.5079C40.852 43.3364 40.1804 44.0079 39.352 44.0079H30.136C29.3076 44.0079 28.636 43.3364 28.636 42.5079Z" fill="black"/>
<path fill-rule="evenodd" clip-rule="evenodd" d="M25.6572 43.2113C26.0277 43.9523 25.7274 44.8533 24.9864 45.2238L15.4468 49.9936C14.7058 50.3641 13.8048 50.0637 13.4344 49.3228C13.0639 48.5818 13.3642 47.6808 14.1052 47.3103L23.6448 42.5405C24.3857 42.17 25.2867 42.4704 25.6572 43.2113Z" fill="black"/>
<path fill-rule="evenodd" clip-rule="evenodd" d="M26.9031 17.7711C27.7606 16.9137 28.9235 16.432 30.136 16.432C31.3486 16.432 32.5115 16.9137 33.3689 17.7711C34.2263 18.6285 34.708 19.7914 34.708 21.004C34.708 22.2166 34.2263 23.3795 33.3689 24.2369C32.5115 25.0943 31.3486 25.576 30.136 25.576C28.9235 25.576 27.7606 25.0943 26.9031 24.2369C26.0457 23.3795 25.564 22.2166 25.564 21.004C25.564 19.7914 26.0457 18.6285 26.9031 17.7711ZM30.136 19.432C29.7191 19.432 29.3193 19.5976 29.0245 19.8924C28.7296 20.1872 28.564 20.5871 28.564 21.004C28.564 21.4209 28.7296 21.8208 29.0245 22.1156C29.3193 22.4104 29.7191 22.576 30.136 22.576C30.5529 22.576 30.9528 22.4104 31.2476 22.1156C31.5424 21.8208 31.708 21.4209 31.708 21.004C31.708 20.5871 31.5424 20.1872 31.2476 19.8924C30.9528 19.5976 30.5529 19.432 30.136 19.432Z" fill="black"/>
<path fill-rule="evenodd" clip-rule="evenodd" d="M40.7271 23.915C41.5845 23.0576 42.7474 22.5759 43.96 22.5759C45.1726 22.5759 46.3355 23.0576 47.1929 23.915C48.0503 24.7725 48.532 25.9354 48.532 27.1479C48.532 28.3605 48.0503 29.5234 47.1929 30.3808C46.3355 31.2382 45.1726 31.7199 43.96 31.7199C42.7474 31.7199 41.5845 31.2382 40.7271 30.3808C39.8697 29.5234 39.388 28.3605 39.388 27.1479C39.388 25.9354 39.8697 24.7725 40.7271 23.915ZM43.96 25.5759C43.5431 25.5759 43.1432 25.7415 42.8484 26.0364C42.5536 26.3312 42.388 26.731 42.388 27.1479C42.388 27.5648 42.5536 27.9647 42.8484 28.2595C43.1432 28.5543 43.5431 28.7199 43.96 28.7199C44.3769 28.7199 44.7768 28.5543 45.0716 28.2595C45.3664 27.9647 45.532 27.5648 45.532 27.1479C45.532 26.731 45.3664 26.3312 45.0716 26.0364C44.7768 25.7415 44.3769 25.5759 43.96 25.5759Z" fill="black"/>
<path fill-rule="evenodd" clip-rule="evenodd" d="M54.5511 8.55505C55.4085 7.69763 56.5714 7.21594 57.784 7.21594C58.9965 7.21594 60.1595 7.69763 61.0169 8.55505C61.8743 9.41247 62.356 10.5754 62.356 11.7879C62.356 13.0005 61.8743 14.1634 61.0169 15.0208C60.1595 15.8783 58.9965 16.3599 57.784 16.3599C56.5714 16.3599 55.4085 15.8783 54.5511 15.0208C53.6937 14.1634 53.212 13.0005 53.212 11.7879C53.212 10.5754 53.6937 9.41247 54.5511 8.55505ZM57.784 10.2159C57.3671 10.2159 56.9672 10.3816 56.6724 10.6764C56.3776 10.9712 56.212 11.371 56.212 11.7879C56.212 12.2049 56.3776 12.6047 56.6724 12.8995C56.9672 13.1943 57.3671 13.3599 57.784 13.3599C58.2009 13.3599 58.6007 13.1943 58.8955 12.8995C59.1904 12.6047 59.356 12.2049 59.356 11.7879C59.356 11.371 59.1904 10.9712 58.8955 10.6764C58.6007 10.3816 58.2009 10.2159 57.784 10.2159Z" fill="black"/>
<path fill-rule="evenodd" clip-rule="evenodd" d="M54.5511 31.5951C55.4085 30.7377 56.5714 30.256 57.784 30.256C58.9965 30.256 60.1595 30.7377 61.0169 31.5951C61.8743 32.4525 62.356 33.6154 62.356 34.828C62.356 36.0406 61.8743 37.2035 61.0169 38.0609C60.1595 38.9183 58.9965 39.4 57.784 39.4C56.5714 39.4 55.4085 38.9183 54.5511 38.0609C53.6937 37.2035 53.212 36.0406 53.212 34.828C53.212 33.6154 53.6937 32.4525 54.5511 31.5951ZM57.784 33.256C57.3671 33.256 56.9672 33.4216 56.6724 33.7164C56.3776 34.0112 56.212 34.4111 56.212 34.828C56.212 35.2449 56.3776 35.6447 56.6724 35.9396C56.9672 36.2344 57.3671 36.4 57.784 36.4C58.2009 36.4 58.6007 36.2344 58.8955 35.9396C59.1904 35.6447 59.356 35.2449 59.356 34.828C59.356 34.4111 59.1904 34.0112 58.8955 33.7164C58.6007 33.4216 58.2009 33.256 57.784 33.256Z" fill="black"/>
<path fill-rule="evenodd" clip-rule="evenodd" d="M39.1911 39.2751C40.0485 38.4177 41.2114 37.936 42.424 37.936C43.6366 37.936 44.7995 38.4177 45.6569 39.2751C46.5143 40.1326 46.996 41.2955 46.996 42.508C46.996 43.7206 46.5143 44.8835 45.6569 45.7409C44.7995 46.5983 43.6366 47.08 42.424 47.08C41.2114 47.08 40.0485 46.5983 39.1911 45.7409C38.3337 44.8835 37.852 43.7206 37.852 42.508C37.852 41.2955 38.3337 40.1326 39.1911 39.2751ZM42.424 40.936C42.0071 40.936 41.6072 41.1017 41.3124 41.3965C41.0176 41.6913 40.852 42.0911 40.852 42.508C40.852 42.925 41.0176 43.3248 41.3124 43.6196C41.6072 43.9144 42.0071 44.08 42.424 44.08C42.8409 44.08 43.2408 43.9144 43.5356 43.6196C43.8304 43.3248 43.996 42.925 43.996 42.508C43.996 42.0911 43.8304 41.6913 43.5356 41.3965C43.2408 41.1017 42.8409 40.936 42.424 40.936Z" fill="black"/>
<path fill-rule="evenodd" clip-rule="evenodd" d="M23.8311 39.2751C24.6885 38.4177 25.8514 37.936 27.064 37.936C28.2766 37.936 29.4395 38.4177 30.2969 39.2751C31.1543 40.1326 31.636 41.2955 31.636 42.508C31.636 43.7206 31.1543 44.8835 30.2969 45.7409C29.4395 46.5983 28.2766 47.08 27.064 47.08C25.8514 47.08 24.6885 46.5983 23.8311 45.7409C22.9737 44.8835 22.492 43.7206 22.492 42.508C22.492 41.2955 22.9737 40.1326 23.8311 39.2751ZM27.064 40.936C26.6471 40.936 26.2472 41.1017 25.9524 41.3965C25.6576 41.6913 25.492 42.0911 25.492 42.508C25.492 42.925 25.6576 43.3248 25.9524 43.6196C26.2472 43.9144 26.6471 44.08 27.064 44.08C27.4809 44.08 27.8808 43.9144 28.1756 43.6196C28.4704 43.3248 28.636 42.925 28.636 42.508C28.636 42.0911 28.4704 41.6913 28.1756 41.3965C27.8808 41.1017 27.4809 40.936 27.064 40.936Z" fill="black"/>
<path fill-rule="evenodd" clip-rule="evenodd" d="M7.09601 3.63196C7.92444 3.63196 8.59601 4.30353 8.59601 5.13196V56.88H64.44C65.2684 56.88 65.94 57.5515 65.94 58.38C65.94 59.2084 65.2684 59.88 64.44 59.88H7.09601C6.26758 59.88 5.59601 59.2084 5.59601 58.38V5.13196C5.59601 4.30353 6.26758 3.63196 7.09601 3.63196Z" fill="black"/>
<path fill-rule="evenodd" clip-rule="evenodd" d="M5.93934 0.93934C6.52513 0.353553 7.47487 0.353553 8.06066 0.93934L13.0607 5.93934C13.6464 6.52513 13.6464 7.47487 13.0607 8.06066C12.4749 8.64645 11.5251 8.64645 10.9393 8.06066L7 4.12132L3.06066 8.06066C2.47487 8.64645 1.52513 8.64645 0.93934 8.06066C0.353553 7.47487 0.353553 6.52513 0.93934 5.93934L5.93934 0.93934Z" fill="black"/>
<path fill-rule="evenodd" clip-rule="evenodd" d="M61.8851 52.9966C62.4393 52.3808 63.3877 52.3309 64.0035 52.8851L69.0035 57.3851C69.3195 57.6695 69.5 58.0748 69.5 58.5C69.5 58.9252 69.3195 59.3305 69.0035 59.615L64.0035 64.115C63.3877 64.6691 62.4393 64.6192 61.8851 64.0035C61.3309 63.3877 61.3808 62.4393 61.9966 61.8851L65.7577 58.5L61.9966 55.115C61.3808 54.5608 61.3309 53.6123 61.8851 52.9966Z" fill="black"/>
</svg>
