<svg width="62" height="58" viewBox="0 0 62 58" fill="none" xmlns="http://www.w3.org/2000/svg">
<path fill-rule="evenodd" clip-rule="evenodd" d="M30.3997 0.97596C30.7825 0.808795 31.2176 0.808795 31.6004 0.97596L60.6004 13.6411C61.2512 13.9253 61.6135 14.6271 61.4683 15.3223C61.3232 16.0176 60.7103 16.5157 60 16.5157H2.00003C1.28979 16.5157 0.676899 16.0176 0.531705 15.3223C0.386511 14.6271 0.748814 13.9253 1.39969 13.6411L30.3997 0.97596ZM9.18256 13.5157H52.8175L31 3.9874L9.18256 13.5157Z" fill="black"/>
<path fill-rule="evenodd" clip-rule="evenodd" d="M3.1364 15.0155C3.1364 14.1871 3.80797 13.5155 4.6364 13.5155H57.3637C58.1921 13.5155 58.8637 14.1871 58.8637 15.0155V23.6021C58.8637 24.4306 58.1921 25.1021 57.3637 25.1021H4.6364C3.80797 25.1021 3.1364 24.4306 3.1364 23.6021V15.0155ZM6.1364 16.5155V22.1021H55.8637V16.5155H6.1364Z" fill="black"/>
<path fill-rule="evenodd" clip-rule="evenodd" d="M24.7124 23.605C24.7124 22.7766 25.3839 22.105 26.2124 22.105H35.7876C36.6161 22.105 37.2876 22.7766 37.2876 23.605V47.2558C37.2876 48.0842 36.6161 48.7558 35.7876 48.7558H26.2124C25.3839 48.7558 24.7124 48.0842 24.7124 47.2558V23.605ZM27.7124 25.105V45.7558H34.2876V25.105H27.7124Z" fill="black"/>
<path fill-rule="evenodd" clip-rule="evenodd" d="M5.77275 23.605C5.77275 22.7766 6.44432 22.105 7.27275 22.105H16.848C17.6764 22.105 18.348 22.7766 18.348 23.605V47.2558C18.348 48.0842 17.6764 48.7558 16.848 48.7558H7.27275C6.44432 48.7558 5.77275 48.0842 5.77275 47.2558V23.605ZM8.77275 25.105V45.7558H15.348V25.105H8.77275Z" fill="black"/>
<path fill-rule="evenodd" clip-rule="evenodd" d="M43.6521 23.605C43.6521 22.7766 44.3236 22.105 45.1521 22.105H54.7273C55.5558 22.105 56.2273 22.7766 56.2273 23.605V47.2558C56.2273 48.0842 55.5558 48.7558 54.7273 48.7558H45.1521C44.3236 48.7558 43.6521 48.0842 43.6521 47.2558V23.605ZM46.6521 25.105V45.7558H53.2273V25.105H46.6521Z" fill="black"/>
<path fill-rule="evenodd" clip-rule="evenodd" d="M3.1364 47.2556C3.1364 46.4272 3.80797 45.7556 4.6364 45.7556H57.3637C58.1921 45.7556 58.8637 46.4272 58.8637 47.2556V55.8818C58.8637 56.7102 58.1921 57.3818 57.3637 57.3818H4.6364C3.80797 57.3818 3.1364 56.7102 3.1364 55.8818V47.2556ZM6.1364 48.7556V54.3818H55.8637V48.7556H6.1364Z" fill="black"/>
<path fill-rule="evenodd" clip-rule="evenodd" d="M3.50003 55.8792C3.50003 55.0507 4.1716 54.3792 5.00003 54.3792H57C57.8285 54.3792 58.5 55.0507 58.5 55.8792C58.5 56.7076 57.8285 57.3792 57 57.3792H5.00003C4.1716 57.3792 3.50003 56.7076 3.50003 55.8792Z" fill="black"/>
</svg>
