<svg width="61" height="61" viewBox="0 0 61 61" fill="none" xmlns="http://www.w3.org/2000/svg">
<path fill-rule="evenodd" clip-rule="evenodd" d="M46.7866 39.05C45.3173 39.05 43.9082 39.6336 42.8693 40.6726C41.8303 41.7115 41.2466 43.1206 41.2466 44.5899C41.2466 46.0592 41.8303 47.4683 42.8693 48.5073C43.9082 49.5462 45.3173 50.1299 46.7866 50.1299C47.3665 50.1299 47.8366 50.6 47.8366 51.1799C47.8366 51.7598 47.3665 52.2299 46.7866 52.2299C44.7604 52.2299 42.8171 51.425 41.3843 49.9922C39.9516 48.5594 39.1466 46.6162 39.1466 44.5899C39.1466 42.5637 39.9516 40.6204 41.3843 39.1876C42.8171 37.7549 44.7604 36.95 46.7866 36.95C47.3665 36.95 47.8366 37.4201 47.8366 38C47.8366 38.5799 47.3665 39.05 46.7866 39.05Z" fill="black"/>
<path fill-rule="evenodd" clip-rule="evenodd" d="M36.95 43.2719C36.95 42.692 37.4201 42.2219 38 42.2219H45.0293C45.6092 42.2219 46.0793 42.692 46.0793 43.2719C46.0793 43.8518 45.6092 44.3219 45.0293 44.3219H38C37.4201 44.3219 36.95 43.8518 36.95 43.2719Z" fill="black"/>
<path fill-rule="evenodd" clip-rule="evenodd" d="M36.95 45.8366C36.95 45.2567 37.4201 44.7866 38 44.7866H45.1243C45.7042 44.7866 46.1743 45.2567 46.1743 45.8366C46.1743 46.4165 45.7042 46.8866 45.1243 46.8866H38C37.4201 46.8866 36.95 46.4165 36.95 45.8366Z" fill="black"/>
<path fill-rule="evenodd" clip-rule="evenodd" d="M32.3327 32.3327C35.4271 29.2384 39.6239 27.5 44 27.5C48.3761 27.5 52.5729 29.2384 55.6673 32.3327C58.7616 35.4271 60.5 39.6239 60.5 44C60.5 48.3761 58.7616 52.5729 55.6673 55.6673C52.5729 58.7616 48.3761 60.5 44 60.5C39.6239 60.5 35.4271 58.7616 32.3327 55.6673C29.2384 52.5729 27.5 48.3761 27.5 44C27.5 39.6239 29.2384 35.4271 32.3327 32.3327ZM44 30.5C40.4196 30.5 36.9858 31.9223 34.4541 34.4541C31.9223 36.9858 30.5 40.4196 30.5 44C30.5 47.5804 31.9223 51.0142 34.4541 53.5459C36.9858 56.0777 40.4196 57.5 44 57.5C47.5804 57.5 51.0142 56.0777 53.5459 53.5459C56.0777 51.0142 57.5 47.5804 57.5 44C57.5 40.4196 56.0777 36.9858 53.5459 34.4541C51.0142 31.9223 47.5804 30.5 44 30.5Z" fill="black"/>
<path fill-rule="evenodd" clip-rule="evenodd" d="M8.5 17C8.5 16.1716 9.17157 15.5 10 15.5H36C36.8284 15.5 37.5 16.1716 37.5 17C37.5 17.8284 36.8284 18.5 36 18.5H10C9.17157 18.5 8.5 17.8284 8.5 17Z" fill="black"/>
<path fill-rule="evenodd" clip-rule="evenodd" d="M8.5 29C8.5 28.1716 9.17157 27.5 10 27.5H25C25.8284 27.5 26.5 28.1716 26.5 29C26.5 29.8284 25.8284 30.5 25 30.5H10C9.17157 30.5 8.5 29.8284 8.5 29Z" fill="black"/>
<path fill-rule="evenodd" clip-rule="evenodd" d="M8.5 40C8.5 39.1716 9.17157 38.5 10 38.5H19C19.8284 38.5 20.5 39.1716 20.5 40C20.5 40.8284 19.8284 41.5 19 41.5H10C9.17157 41.5 8.5 40.8284 8.5 40Z" fill="black"/>
<path fill-rule="evenodd" clip-rule="evenodd" d="M5.81818 3.5C5.19716 3.5 4.60541 3.74372 4.17211 4.17146C3.73947 4.59856 3.5 5.17369 3.5 5.76923V47.2308C3.5 47.8263 3.73947 48.4014 4.17211 48.8285C4.60542 49.2563 5.19716 49.5 5.81818 49.5H19.1818C20.0102 49.5 20.6818 50.1716 20.6818 51C20.6818 51.8284 20.0102 52.5 19.1818 52.5H5.81818C4.41391 52.5 3.06332 51.9495 2.06452 50.9635C1.06507 49.9769 0.5 48.6345 0.5 47.2308V5.76923C0.5 4.36545 1.06507 3.02314 2.06452 2.0365C3.06332 1.05051 4.41391 0.5 5.81818 0.5H32.8738C34.2771 0.500296 35.627 1.05032 36.6255 2.03531L43.9363 9.25247C44.9348 10.2387 45.4997 11.5804 45.5 12.9832V20.8462C45.5 21.6746 44.8284 22.3462 44 22.3462C43.1716 22.3462 42.5 21.6746 42.5 20.8462V12.9839C42.5 12.9838 42.5 12.984 42.5 12.9839C42.4998 12.389 42.2607 11.8142 41.8288 11.3874M41.8288 11.3874L34.5185 4.17095C34.5184 4.17083 34.5187 4.17106 34.5185 4.17095C34.0855 3.74392 33.4941 3.50021 32.8738 3.5C32.8737 3.5 32.8739 3.5 32.8738 3.5H5.81818" fill="black"/>
</svg>
