<svg width="62" height="62" viewBox="0 0 62 62" fill="none" xmlns="http://www.w3.org/2000/svg">
<path fill-rule="evenodd" clip-rule="evenodd" d="M30.9986 0.5C31.827 0.5 32.4986 1.17157 32.4986 2V5.86684C32.4986 6.69527 31.827 7.36684 30.9986 7.36684C30.1702 7.36684 29.4986 6.69527 29.4986 5.86684V2C29.4986 1.17157 30.1702 0.5 30.9986 0.5Z" fill="black"/>
<path fill-rule="evenodd" clip-rule="evenodd" d="M10.1644 21.3342C10.1644 20.5058 10.836 19.8342 11.6644 19.8342H15.8071C16.6355 19.8342 17.3071 20.5058 17.3071 21.3342C17.3071 22.1627 16.6355 22.8342 15.8071 22.8342H11.6644C10.836 22.8342 10.1644 22.1627 10.1644 21.3342Z" fill="black"/>
<path fill-rule="evenodd" clip-rule="evenodd" d="M44.6902 21.3342C44.6902 20.5058 45.3618 19.8342 46.1902 19.8342H50.3329C51.1613 19.8342 51.8329 20.5058 51.8329 21.3342C51.8329 22.1627 51.1613 22.8342 50.3329 22.8342H46.1902C45.3618 22.8342 44.6902 22.1627 44.6902 21.3342Z" fill="black"/>
<path fill-rule="evenodd" clip-rule="evenodd" d="M13.9908 7.64224C14.5764 7.05624 15.5261 7.05589 16.1121 7.64147L19.6309 11.1577C20.2169 11.7433 20.2173 12.693 19.6317 13.279C19.0462 13.865 18.0964 13.8654 17.5104 13.2798L13.9916 9.76356C13.4056 9.17799 13.4052 8.22824 13.9908 7.64224Z" fill="black"/>
<path fill-rule="evenodd" clip-rule="evenodd" d="M48.0065 7.64224C48.5921 8.22825 48.5917 9.17799 48.0057 9.76356L44.4869 13.2798C43.9009 13.8654 42.9511 13.865 42.3656 13.279C41.78 12.693 41.7803 11.7433 42.3663 11.1577L45.8852 7.64147C46.4712 7.05589 47.4209 7.05624 48.0065 7.64224Z" fill="black"/>
<path fill-rule="evenodd" clip-rule="evenodd" d="M30.5367 10.1667C32.5488 10.0834 34.546 10.5457 36.3168 11.5048C38.0876 12.4638 39.5661 13.8838 40.5957 15.6145C41.6254 17.3452 42.1679 19.3221 42.1657 21.3359C42.1648 23.5071 41.5303 25.6308 40.3402 27.4467C39.3338 28.9822 37.967 30.2412 36.3655 31.1178V34.8683C36.3655 35.6967 35.6939 36.3683 34.8655 36.3683H27.1318C26.3034 36.3683 25.6318 35.6967 25.6318 34.8683V31.1171C24.1672 30.3145 22.8974 29.1913 21.92 27.8267C20.7474 26.1895 20.0393 24.2657 19.8707 22.2589C19.7022 20.2522 20.0794 18.2372 20.9625 16.4273C21.8456 14.6174 23.2016 13.0801 24.8871 11.9779C26.5725 10.8758 28.5247 10.25 30.5367 10.1667ZM34.8881 14.1427C33.593 13.4413 32.1324 13.1032 30.6608 13.1641C29.1893 13.225 27.7616 13.6827 26.5289 14.4888C25.2963 15.2948 24.3045 16.4192 23.6587 17.7428C23.0128 19.0665 22.7369 20.5402 22.8602 22.0078C22.9835 23.4754 23.5013 24.8824 24.3589 26.0798C25.2165 27.2772 26.382 28.2204 27.7318 28.8095C28.2784 29.0481 28.6318 29.5878 28.6318 30.1843V33.3683H33.3655V30.1843C33.3655 29.5874 33.7193 29.0474 34.2664 28.8091C35.722 28.175 36.9608 27.13 37.8311 25.8022C38.7013 24.4744 39.1652 22.9214 39.1657 21.3338V21.3328C39.1673 19.86 38.7705 18.4141 38.0175 17.1484C37.2645 15.8827 36.1832 14.8441 34.8881 14.1427Z" fill="black"/>
<path fill-rule="evenodd" clip-rule="evenodd" d="M25.6318 40.6685C25.6318 39.84 26.3034 39.1685 27.1318 39.1685H34.8655C35.6939 39.1685 36.3655 39.84 36.3655 40.6685C36.3655 41.4969 35.6939 42.1685 34.8655 42.1685H27.1318C26.3034 42.1685 25.6318 41.4969 25.6318 40.6685Z" fill="black"/>
<path fill-rule="evenodd" clip-rule="evenodd" d="M43.2653 37.7229C44.8156 36.1725 46.9184 35.3015 49.1109 35.3015C51.3034 35.3015 53.4062 36.1725 54.9565 37.7229C56.5069 39.2732 57.3779 41.3759 57.3779 43.5685C57.3779 45.761 56.5069 47.8638 54.9565 49.4141C53.4062 50.9645 51.3034 51.8355 49.1109 51.8355C46.9184 51.8355 44.8156 50.9645 43.2653 49.4141C41.7149 47.8638 40.8439 45.761 40.8439 43.5685C40.8439 41.3759 41.7149 39.2732 43.2653 37.7229ZM49.1109 38.3015C47.714 38.3015 46.3743 38.8564 45.3866 39.8442C44.3988 40.8319 43.8439 42.1716 43.8439 43.5685C43.8439 44.9654 44.3988 46.305 45.3866 47.2928C46.3743 48.2805 47.714 48.8355 49.1109 48.8355C50.5078 48.8355 51.8475 48.2805 52.8352 47.2928C53.823 46.305 54.3779 44.9654 54.3779 43.5685C54.3779 42.1716 53.823 40.8319 52.8352 39.8442C51.8475 38.8564 50.5078 38.3015 49.1109 38.3015Z" fill="black"/>
<path fill-rule="evenodd" clip-rule="evenodd" d="M41.5619 53.1745C43.7671 51.6081 46.4049 50.7666 49.1097 50.7666C51.8145 50.7666 54.4523 51.6081 56.6574 53.1745C58.8626 54.7409 60.5257 56.9545 61.4163 59.5085C61.6891 60.2907 61.2761 61.146 60.4939 61.4187C59.7117 61.6915 58.8564 61.2785 58.5836 60.4963C57.898 58.5302 56.6177 56.8261 54.9201 55.6203C53.2226 54.4144 51.1919 53.7666 49.1097 53.7666C47.0275 53.7666 44.9968 54.4144 43.2992 55.6203C41.6017 56.8261 40.3214 58.5302 39.6357 60.4963C39.3629 61.2785 38.5077 61.6915 37.7255 61.4187C36.9432 61.146 36.5302 60.2907 36.803 59.5085C37.6937 56.9545 39.3568 54.7409 41.5619 53.1745Z" fill="black"/>
<path fill-rule="evenodd" clip-rule="evenodd" d="M9.72272 35.9308C10.7257 35.5153 11.8007 35.3015 12.8864 35.3015C13.972 35.3015 15.047 35.5153 16.05 35.9308C17.053 36.3463 17.9643 36.9552 18.732 37.7229C19.4996 38.4905 20.1086 39.4019 20.524 40.4049C20.9395 41.4078 21.1533 42.4829 21.1533 43.5685C21.1533 44.6541 20.9395 45.7291 20.524 46.7321C20.1086 47.7351 19.4996 48.6465 18.732 49.4141C17.9643 50.1818 17.053 50.7907 16.05 51.2062C15.047 51.6216 13.972 51.8355 12.8864 51.8355C11.8007 51.8355 10.7257 51.6216 9.72272 51.2062C8.71973 50.7907 7.80838 50.1818 7.04072 49.4141C6.27306 48.6465 5.66412 47.7351 5.24867 46.7321C4.83322 45.7291 4.61938 44.6541 4.61938 43.5685C4.61938 42.4829 4.83322 41.4078 5.24867 40.4049C5.66412 39.4019 6.27307 38.4905 7.04072 37.7229C7.80838 36.9552 8.71973 36.3463 9.72272 35.9308ZM12.8864 38.3015C12.1947 38.3015 11.5098 38.4377 10.8708 38.7024C10.2318 38.9671 9.65113 39.3551 9.16204 39.8442C8.67296 40.3333 8.285 40.9139 8.02031 41.5529C7.75562 42.1919 7.61938 42.8768 7.61938 43.5685C7.61938 44.2602 7.75562 44.945 8.02031 45.5841C8.285 46.2231 8.67296 46.8037 9.16204 47.2928C9.65113 47.7819 10.2318 48.1698 10.8708 48.4345C11.5098 48.6992 12.1947 48.8355 12.8864 48.8355C13.578 48.8355 14.2629 48.6992 14.9019 48.4345C15.541 48.1698 16.1216 47.7819 16.6107 47.2928C17.0997 46.8037 17.4877 46.2231 17.7524 45.5841C18.0171 44.945 18.1533 44.2602 18.1533 43.5685C18.1533 42.8768 18.0171 42.1919 17.7524 41.5529C17.4877 40.9139 17.0998 40.3333 16.6107 39.8442C16.1216 39.3551 15.541 38.9671 14.9019 38.7024C14.2629 38.4377 13.578 38.3015 12.8864 38.3015Z" fill="black"/>
<path fill-rule="evenodd" clip-rule="evenodd" d="M5.34257 53.1745C7.54769 51.6081 10.1855 50.7666 12.8903 50.7666C15.5951 50.7666 18.233 51.6081 20.4381 53.1745C22.6432 54.7409 24.3064 56.9545 25.197 59.5085C25.4698 60.2907 25.0568 61.146 24.2746 61.4187C23.4923 61.6915 22.6371 61.2785 22.3643 60.4963C21.6787 58.5302 20.3983 56.8261 18.7008 55.6203C17.0032 54.4144 14.9726 53.7666 12.8903 53.7666C10.8081 53.7666 8.77744 54.4144 7.07989 55.6203C5.38234 56.8261 4.10199 58.5302 3.41636 60.4963C3.14358 61.2785 2.28832 61.6915 1.5061 61.4187C0.723868 61.146 0.31088 60.2907 0.583662 59.5085C1.4743 56.9545 3.13746 54.7409 5.34257 53.1745Z" fill="black"/>
</svg>
