<svg width="77" height="57" viewBox="0 0 77 57" fill="none" xmlns="http://www.w3.org/2000/svg">
<path fill-rule="evenodd" clip-rule="evenodd" d="M15.2586 2.57783C11.0171 2.57783 7.57866 6.01515 7.57866 10.2553V45H5V10.2553C5 4.59145 9.59293 0 15.2586 0H57.3119V2.57783H15.2586ZM10.0393 8.5741C10.0393 6.62425 11.6204 5.04359 13.5709 5.04359H57.3119V7.62142H13.5709C13.0446 7.62142 12.6179 8.04795 12.6179 8.5741V39.8163C12.6179 40.3425 13.0446 40.769 13.5709 40.769H63.4683C63.9947 40.769 64.4213 40.3425 64.4213 39.8163V14.9486H67V39.8163C67 41.7662 65.4188 43.3468 63.4683 43.3468H13.5709C11.6204 43.3468 10.0393 41.7662 10.0393 39.8163V8.5741Z" fill="black"/>
<path fill-rule="evenodd" clip-rule="evenodd" d="M63.0376 1H70.7315C71.4372 1 72.0093 1.57322 72.0093 2.28032V9.67961H69.4538V5.34171L50.2125 24.36C47.9843 26.5624 44.4036 26.5624 42.1754 24.36L38.8523 21.0754C37.6193 19.8566 35.6377 19.8566 34.4046 21.0754L17.771 37.5163L15.9763 35.6934L32.61 19.2525C34.8381 17.0501 38.4188 17.0501 40.647 19.2525L43.9701 22.5371C45.2032 23.7558 47.1847 23.7558 48.4178 22.5371L67.6167 3.56064H63.0376V1ZM69.4538 44.4152V15.0235H72.0093V44.4152H69.4538ZM56.977 37.6325V21.6007H59.5326V37.6325H56.977ZM33.2713 37.6325V26.5336H35.8268V37.6325H33.2713ZM37.8461 37.6325V26.5336H40.4016V37.6325H37.8461ZM51.7784 37.6325V26.5336H54.334V37.6325H51.7784ZM42.4209 37.6325V30.8498H44.9764V37.6325H42.4209ZM47.2036 37.6325V30.8498H49.7592V37.6325H47.2036ZM28.0726 37.6325V31.2609H30.6282V37.6325H28.0726ZM23.7058 37.6325V35.5772H26.2613V37.6325H23.7058ZM0 50.5438C0 48.4952 1.6574 46.8345 3.7019 46.8345H28.5669C30.071 46.8345 31.5146 47.4279 32.5854 48.4863L32.6928 48.5924C33.2854 49.1781 34.0843 49.5065 34.9166 49.5065H42.9151C43.7475 49.5065 44.5464 49.1781 45.139 48.5924L45.2463 48.4863C46.3171 47.4279 47.7608 46.8345 49.2649 46.8345H73.1187C75.2623 46.8345 77 48.5757 77 50.7235C77 51.7641 76.5838 52.7613 75.8444 53.4921L73.9666 55.3482C72.8958 56.4066 71.4521 57 69.948 57H8.28371C7.11733 57 5.9788 56.6429 5.02065 55.9764L1.59091 53.5909C0.594372 52.8977 0 51.7593 0 50.5438ZM3.7019 49.3952C3.06879 49.3952 2.55556 49.9094 2.55556 50.5438C2.55556 50.9202 2.73961 51.2727 3.0482 51.4874L6.47794 53.8729C7.00818 54.2417 7.63824 54.4394 8.28371 54.4394H69.948C70.7804 54.4394 71.5793 54.111 72.1719 53.5253L74.0497 51.6692C74.3023 51.4196 74.4444 51.079 74.4444 50.7235C74.4444 49.9899 73.8509 49.3952 73.1187 49.3952H49.2649C48.4325 49.3952 47.6336 49.7235 47.041 50.3093L46.9337 50.4154C45.8629 51.4737 44.4192 52.0671 42.9151 52.0671H34.9166C33.4125 52.0671 31.9689 51.4737 30.8981 50.4154L30.7908 50.3093C30.1982 49.7235 29.3993 49.3952 28.5669 49.3952H3.7019Z" fill="black"/>
</svg>
