<svg width="66" height="66" viewBox="0 0 66 66" fill="none" xmlns="http://www.w3.org/2000/svg">
<path fill-rule="evenodd" clip-rule="evenodd" d="M7.186 34.1136C7.63842 34.8074 8.56761 35.0032 9.26154 34.5509L19.046 28.1737C19.7401 27.7213 19.936 26.792 19.4836 26.098C19.0313 25.4039 18.102 25.208 17.4079 25.6604L8.87984 31.2187L3.31898 22.6905C2.86649 21.9965 1.93713 21.8008 1.2432 22.2533C0.549257 22.7058 0.35352 23.6351 0.806003 24.3291L7.186 34.1136Z" fill="black"/>
<path fill-rule="evenodd" clip-rule="evenodd" d="M46.4615 56.4694C43.273 57.7622 39.8599 58.4102 36.4195 58.3758C35.5911 58.3675 34.9128 59.0323 34.9046 59.8607C34.8963 60.6891 35.5611 61.3673 36.3895 61.3756C40.2264 61.414 44.0328 60.6914 47.5887 59.2496C51.1446 57.8078 54.3795 55.6755 57.1062 52.9758C59.833 50.2762 61.9976 47.0628 63.4748 43.5215C64.952 39.9802 65.7126 36.1812 65.7126 32.3441C65.7126 28.507 64.952 24.708 63.4748 21.1666C61.9976 17.6253 59.833 14.4119 57.1062 11.7123C54.3795 9.01267 51.1446 6.88033 47.5887 5.43855C44.035 3.99764 40.231 3.27504 36.3964 3.31245C32.4842 3.31511 28.6116 4.09648 25.0044 5.61103C21.395 7.12654 18.1235 9.34581 15.381 12.1393C12.6384 14.9328 10.4798 18.2446 9.031 21.8814C7.58221 25.5182 6.87231 29.4071 6.94272 33.3212C6.95763 34.1495 7.64117 34.8089 8.46946 34.794C9.29776 34.7791 9.95714 34.0955 9.94224 33.2672C9.87899 29.7515 10.5166 26.2583 11.818 22.9916C13.1193 19.725 15.0583 16.7502 17.5217 14.241C19.9851 11.7318 22.9237 9.73838 26.1658 8.3771C29.408 7.01583 32.8888 6.31395 36.4051 6.31245L36.4195 6.31237C39.8599 6.27799 43.273 6.92592 46.4615 8.21872C49.65 9.51151 52.5505 11.4235 54.9955 13.8442C57.4405 16.2649 59.3814 19.1462 60.706 22.3216C62.0306 25.497 62.7126 28.9035 62.7126 32.3441C62.7126 35.7847 62.0306 39.1911 60.706 42.3665C59.3814 45.5419 57.4405 48.4233 54.9955 50.8439C52.5505 53.2646 49.65 55.1766 46.4615 56.4694Z" fill="black"/>
<path fill-rule="evenodd" clip-rule="evenodd" d="M41.2063 23.25C38.9678 23.25 36.8209 24.1393 35.238 25.7222C33.6551 27.3051 32.7659 29.4519 32.7659 31.6905C32.7659 33.929 33.6551 36.0759 35.238 37.6588C36.8209 39.2417 38.9678 40.131 41.2063 40.131C41.8967 40.131 42.4563 40.6906 42.4563 41.381C42.4563 42.0713 41.8967 42.631 41.2063 42.631C38.3048 42.631 35.522 41.4783 33.4703 39.4266C31.4185 37.3748 30.2659 34.5921 30.2659 31.6905C30.2659 28.7889 31.4185 26.0061 33.4703 23.9544C35.522 21.9027 38.3048 20.75 41.2063 20.75C41.8967 20.75 42.4563 21.3096 42.4563 22C42.4563 22.6904 41.8967 23.25 41.2063 23.25Z" fill="black"/>
<path fill-rule="evenodd" clip-rule="evenodd" d="M27.0357 29.7524C27.0357 29.0621 27.5953 28.5024 28.2857 28.5024L38.6222 28.5024C39.3126 28.5024 39.8722 29.0621 39.8722 29.7524C39.8722 30.4428 39.3126 31.0024 38.6222 31.0024L28.2857 31.0024C27.5953 31.0024 27.0357 30.4428 27.0357 29.7524Z" fill="black"/>
<path fill-rule="evenodd" clip-rule="evenodd" d="M27.0357 33.5238C27.0357 32.8334 27.5953 32.2738 28.2857 32.2738L38.7619 32.2738C39.4523 32.2738 40.0119 32.8334 40.0119 33.5238C40.0119 34.2142 39.4523 34.7738 38.7619 34.7738L28.2857 34.7738C27.5953 34.7738 27.0357 34.2142 27.0357 33.5238Z" fill="black"/>
</svg>
