<svg width="18" height="18" viewBox="0 0 18 18" fill="none" xmlns="http://www.w3.org/2000/svg">
<path d="M15.9333 2.67799H2.06667C1.47756 2.67799 1 3.1559 1 3.74544V15.4874C1 16.0769 1.47756 16.5548 2.06667 16.5548H15.9333C16.5224 16.5548 17 16.0769 17 15.4874V3.74544C17 3.1559 16.5224 2.67799 15.9333 2.67799Z" stroke="white" stroke-linecap="round" stroke-linejoin="round"/>
<path d="M1 6.94772H17" stroke="white" stroke-linecap="round" stroke-linejoin="round"/>
<path d="M5.26666 4.27872V0.542648" stroke="white" stroke-linecap="round" stroke-linejoin="round"/>
<path d="M12.7333 4.27872V0.542648" stroke="white" stroke-linecap="round" stroke-linejoin="round"/>
<path d="M4.46668 10.149C4.3194 10.149 4.20001 10.0296 4.20001 9.88236C4.20001 9.73509 4.3194 9.61569 4.46668 9.61569" stroke="white"/>
<path d="M4.46667 10.149C4.61395 10.149 4.73334 10.0296 4.73334 9.88236C4.73334 9.73509 4.61395 9.61569 4.46667 9.61569" stroke="white"/>
<path d="M4.46666 13.8854C4.31939 13.8854 4.2 13.766 4.2 13.6187C4.2 13.4714 4.31939 13.352 4.46666 13.352" stroke="white"/>
<path d="M4.46666 13.8854C4.61394 13.8854 4.73333 13.766 4.73333 13.6187C4.73333 13.4714 4.61394 13.352 4.46666 13.352" stroke="white"/>
<path d="M9 10.149C8.85273 10.149 8.73334 10.0296 8.73334 9.88236C8.73334 9.73509 8.85273 9.61569 9 9.61569" stroke="white"/>
<path d="M9 10.149C9.14727 10.149 9.26667 10.0296 9.26667 9.88236C9.26667 9.73509 9.14727 9.61569 9 9.61569" stroke="white"/>
<path d="M9 13.8854C8.85273 13.8854 8.73334 13.766 8.73334 13.6187C8.73334 13.4714 8.85273 13.352 9 13.352" stroke="white"/>
<path d="M9 13.8856C9.14727 13.8856 9.26667 13.7662 9.26667 13.6189C9.26667 13.4716 9.14727 13.3522 9 13.3522" stroke="white"/>
<path d="M13.5333 10.15C13.3861 10.15 13.2667 10.0306 13.2667 9.88334C13.2667 9.73606 13.3861 9.61667 13.5333 9.61667" stroke="white"/>
<path d="M13.5333 10.15C13.6806 10.15 13.8 10.0306 13.8 9.88334C13.8 9.73606 13.6806 9.61667 13.5333 9.61667" stroke="white"/>
<path d="M13.5333 13.8854C13.3861 13.8854 13.2667 13.766 13.2667 13.6187C13.2667 13.4714 13.3861 13.352 13.5333 13.352" stroke="white"/>
<path d="M13.5333 13.8856C13.6806 13.8856 13.8 13.7662 13.8 13.6189C13.8 13.4716 13.6806 13.3522 13.5333 13.3522" stroke="white"/>
</svg>
