<svg width="18" height="18" viewBox="0 0 18 18" fill="none" xmlns="http://www.w3.org/2000/svg">
<path d="M15.9333 3.45724H2.06667C1.47756 3.45724 1 3.93516 1 4.52469V16.2666C1 16.8561 1.47756 17.3341 2.06667 17.3341H15.9333C16.5224 17.3341 17 16.8561 17 16.2666V4.52469C17 3.93516 16.5224 3.45724 15.9333 3.45724Z" stroke="black" stroke-linecap="round" stroke-linejoin="round"/>
<path d="M1 7.72699H17" stroke="black" stroke-linecap="round" stroke-linejoin="round"/>
<path d="M5.26666 5.05797V1.3219" stroke="black" stroke-linecap="round" stroke-linejoin="round"/>
<path d="M12.7333 5.05797V1.3219" stroke="black" stroke-linecap="round" stroke-linejoin="round"/>
<path d="M4.46666 10.9283C4.31939 10.9283 4.2 10.8089 4.2 10.6616C4.2 10.5144 4.31939 10.395 4.46666 10.395" stroke="black"/>
<path d="M4.46666 10.9283C4.61394 10.9283 4.73333 10.8089 4.73333 10.6616C4.73333 10.5144 4.61394 10.395 4.46666 10.395" stroke="black"/>
<path d="M4.46666 14.6646C4.31939 14.6646 4.2 14.5452 4.2 14.398C4.2 14.2507 4.31939 14.1313 4.46666 14.1313" stroke="black"/>
<path d="M4.46666 14.6646C4.61394 14.6646 4.73333 14.5452 4.73333 14.398C4.73333 14.2507 4.61394 14.1313 4.46666 14.1313" stroke="black"/>
<path d="M9 10.9283C8.85273 10.9283 8.73334 10.8089 8.73334 10.6616C8.73334 10.5144 8.85273 10.395 9 10.395" stroke="black"/>
<path d="M9 10.9283C9.14727 10.9283 9.26667 10.8089 9.26667 10.6616C9.26667 10.5144 9.14727 10.395 9 10.395" stroke="black"/>
<path d="M9 14.6646C8.85273 14.6646 8.73334 14.5452 8.73334 14.398C8.73334 14.2507 8.85273 14.1313 9 14.1313" stroke="black"/>
<path d="M9 14.6648C9.14727 14.6648 9.26667 14.5454 9.26667 14.3981C9.26667 14.2509 9.14727 14.1315 9 14.1315" stroke="black"/>
<path d="M13.5333 10.9293C13.3861 10.9293 13.2667 10.8099 13.2667 10.6626C13.2667 10.5153 13.3861 10.3959 13.5333 10.3959" stroke="black"/>
<path d="M13.5333 10.9293C13.6806 10.9293 13.8 10.8099 13.8 10.6626C13.8 10.5153 13.6806 10.3959 13.5333 10.3959" stroke="black"/>
<path d="M13.5333 14.6646C13.3861 14.6646 13.2667 14.5452 13.2667 14.398C13.2667 14.2507 13.3861 14.1313 13.5333 14.1313" stroke="black"/>
<path d="M13.5333 14.6648C13.6806 14.6648 13.8 14.5454 13.8 14.3981C13.8 14.2509 13.6806 14.1315 13.5333 14.1315" stroke="black"/>
</svg>
