<svg width="16" height="17" viewBox="0 0 16 17" fill="none" xmlns="http://www.w3.org/2000/svg">
<path fill-rule="evenodd" clip-rule="evenodd" d="M11.8277 2.07752C11.8304 2.07978 11.8333 2.08217 11.8363 2.0847C11.917 2.15328 12.0214 2.25675 12.2113 2.44685L12.2114 2.44687L13.7943 4.03092C13.7943 4.03093 13.7943 4.03093 13.7943 4.03094C13.985 4.22184 14.0889 4.32683 14.1578 4.40805C14.1606 4.4113 14.1632 4.41438 14.1656 4.41731C14.1633 4.42014 14.1607 4.42313 14.1581 4.42626C14.0899 4.50665 13.9873 4.6104 13.7996 4.79818C13.7978 4.79995 13.7961 4.80173 13.7943 4.80352L11.8277 6.77156L9.47509 4.41725L11.4356 2.45525C11.4382 2.45271 11.4408 2.45015 11.4434 2.44757C11.6336 2.2572 11.7381 2.15357 11.819 2.08486C11.822 2.08227 11.8249 2.07982 11.8277 2.07752ZM8.18841 5.70488L10.541 8.05919L4.17225 14.4326H1.81965V12.0783L8.18841 5.70488ZM7.54507 3.77344L10.155 1.16156C10.1575 1.15904 10.16 1.15653 10.1626 1.15404L10.1768 1.13979C10.3387 0.977672 10.4966 0.819609 10.6414 0.696648C10.8002 0.561688 11.002 0.41648 11.2654 0.330824L11.2655 0.330805C11.631 0.211997 12.0245 0.211997 12.39 0.330805L12.3901 0.330841C12.6534 0.416459 12.855 0.561552 13.0138 0.696394C13.1584 0.819231 13.3161 0.977113 13.4778 1.13899L13.498 1.15924L13.4981 1.15926L15.081 2.74331L15.081 2.74333L15.1015 2.76389C15.2639 2.92635 15.422 3.08458 15.545 3.22954C15.68 3.38872 15.8253 3.59077 15.9109 3.85456C16.0298 4.22065 16.0295 4.61453 15.911 4.97979L15.911 4.97991C15.8254 5.24364 15.6803 5.44561 15.5453 5.60472C15.4224 5.74961 15.2644 5.9077 15.1022 6.06995L15.0817 6.09041C15.08 6.09218 15.0782 6.09395 15.0764 6.09571L12.471 8.703L11.8583 8.08985L12.471 8.70301L5.19246 15.9869C5.02183 16.1577 4.79041 16.2536 4.54912 16.2536H0.909823C0.407342 16.2536 0 15.846 0 15.3431V11.7011C0 11.4597 0.0958564 11.2281 0.266482 11.0573L7.54506 3.77345L7.54507 3.77344Z" fill="white"/>
</svg>
