<svg width="19" height="20" viewBox="0 0 19 20" fill="none" xmlns="http://www.w3.org/2000/svg">
<path fill-rule="evenodd" clip-rule="evenodd" d="M0 3.01455C0 2.45962 0.448328 2.00977 1.00137 2.00977H13.0178C13.5708 2.00977 14.0192 2.45962 14.0192 3.01455C14.0192 3.56948 13.5708 4.01934 13.0178 4.01934H1.00137C0.448328 4.01934 0 3.56948 0 3.01455Z" fill="#353941"/>
<path fill-rule="evenodd" clip-rule="evenodd" d="M0 9.9999C0 9.44498 0.44718 8.99512 0.998806 8.99512H6.99164C7.54326 8.99512 7.99044 9.44498 7.99044 9.9999C7.99044 10.5548 7.54326 11.0047 6.99164 11.0047H0.998806C0.44718 11.0047 0 10.5548 0 9.9999Z" fill="#353941"/>
<path fill-rule="evenodd" clip-rule="evenodd" d="M10 9.9999C10 9.44498 10.4499 8.99512 11.0048 8.99512H17.0335C17.5884 8.99512 18.0383 9.44498 18.0383 9.9999C18.0383 10.5548 17.5884 11.0047 17.0335 11.0047H11.0048C10.4499 11.0047 10 10.5548 10 9.9999Z" fill="#353941"/>
<path fill-rule="evenodd" clip-rule="evenodd" d="M4.01917 17.0334C4.01917 16.4784 4.46749 16.0286 5.02053 16.0286H17.037C17.59 16.0286 18.0383 16.4784 18.0383 17.0334C18.0383 17.5883 17.59 18.0381 17.037 18.0381H5.02053C4.46749 18.0381 4.01917 17.5883 4.01917 17.0334Z" fill="#353941"/>
<path fill-rule="evenodd" clip-rule="evenodd" d="M15.024 2.00957C14.4691 2.00957 14.0192 2.45943 14.0192 3.01436C14.0192 3.56929 14.4691 4.01915 15.024 4.01915C15.5789 4.01915 16.0288 3.56929 16.0288 3.01436C16.0288 2.45943 15.5789 2.00957 15.024 2.00957ZM12.0096 3.01436C12.0096 1.34957 13.3592 0 15.024 0C16.6888 0 18.0384 1.34957 18.0384 3.01436C18.0384 4.67914 16.6888 6.02872 15.024 6.02872C13.3592 6.02872 12.0096 4.67914 12.0096 3.01436Z" fill="#353941"/>
<path fill-rule="evenodd" clip-rule="evenodd" d="M9.01912 8.99517C8.4686 8.99517 8.02231 9.44503 8.02231 9.99995C8.02231 10.5549 8.4686 11.0047 9.01912 11.0047C9.56965 11.0047 10.0159 10.5549 10.0159 9.99995C10.0159 9.44503 9.56965 8.99517 9.01912 8.99517ZM6.02869 9.99995C6.02869 8.33517 7.36755 6.9856 9.01912 6.9856C10.6707 6.9856 12.0096 8.33517 12.0096 9.99995C12.0096 11.6647 10.6707 13.0143 9.01912 13.0143C7.36755 13.0143 6.02869 11.6647 6.02869 9.99995Z" fill="#353941"/>
<path fill-rule="evenodd" clip-rule="evenodd" d="M3.01436 16.0127C2.45943 16.0127 2.00957 16.459 2.00957 17.0095C2.00957 17.56 2.45943 18.0063 3.01436 18.0063C3.56929 18.0063 4.01915 17.56 4.01915 17.0095C4.01915 16.459 3.56929 16.0127 3.01436 16.0127ZM0 17.0095C0 15.3579 1.34957 14.019 3.01436 14.019C4.67914 14.019 6.02872 15.3579 6.02872 17.0095C6.02872 18.6611 4.67914 19.9999 3.01436 19.9999C1.34957 19.9999 0 18.6611 0 17.0095Z" fill="#353941"/>
</svg>
