<svg width="14" height="18" viewBox="0 0 14 18" fill="none" xmlns="http://www.w3.org/2000/svg">
<path d="M3.98953 7.32274C3.98953 7.71562 4.06686 8.10465 4.2171 8.46762C4.36733 8.83059 4.58754 9.16039 4.86514 9.4382C5.14275 9.71601 5.47231 9.93637 5.83502 10.0867C6.19772 10.2371 6.58647 10.3145 6.97906 10.3145C7.37165 10.3145 7.76039 10.2371 8.1231 10.0867C8.48581 9.93637 8.81537 9.71601 9.09297 9.4382C9.37057 9.16039 9.59078 8.83059 9.74102 8.46762C9.89126 8.10465 9.96858 7.71562 9.96858 7.32274C9.96858 6.92986 9.89126 6.54083 9.74102 6.17786C9.59078 5.81489 9.37057 5.48508 9.09297 5.20728C8.81537 4.92947 8.48581 4.7091 8.1231 4.55875C7.76039 4.40841 7.37165 4.33102 6.97906 4.33102C6.58647 4.33102 6.19772 4.40841 5.83502 4.55875C5.47231 4.7091 5.14275 4.92947 4.86514 5.20728C4.58754 5.48508 4.36733 5.81489 4.2171 6.17786C4.06686 6.54083 3.98953 6.92986 3.98953 7.32274Z" stroke="black" stroke-opacity="0.8" stroke-linecap="round" stroke-linejoin="round"/>
<path d="M6.97905 1.33957C8.56479 1.33957 10.0856 1.96996 11.2069 3.09207C12.3282 4.21419 12.9581 5.73609 12.9581 7.323C12.9581 9.98762 9.07172 15.1623 7.565 17.067C7.49504 17.1556 7.40593 17.2272 7.30436 17.2765C7.2028 17.3257 7.09141 17.3513 6.97855 17.3513C6.8657 17.3513 6.75431 17.3257 6.65274 17.2765C6.55117 17.2272 6.46207 17.1556 6.39211 17.067C4.88638 15.1613 1 9.98762 1 7.323C1 5.73609 1.62993 4.21419 2.75122 3.09207C3.87251 1.96996 5.39331 1.33957 6.97905 1.33957V1.33957Z" stroke="black" stroke-opacity="0.8" stroke-linecap="round" stroke-linejoin="round"/>
</svg>
