<svg width="14" height="18" viewBox="0 0 14 18" fill="none" xmlns="http://www.w3.org/2000/svg">
<path d="M3.9895 6.97878C3.9895 7.37137 4.06683 7.76012 4.21707 8.12282C4.3673 8.48553 4.58751 8.81509 4.86511 9.0927C5.14272 9.3703 5.47228 9.59051 5.83499 9.74074C6.19769 9.89098 6.58644 9.96831 6.97903 9.96831C7.37162 9.96831 7.76036 9.89098 8.12307 9.74074C8.48577 9.59051 8.81534 9.3703 9.09294 9.0927C9.37054 8.81509 9.59075 8.48553 9.74099 8.12282C9.89123 7.76012 9.96855 7.37137 9.96855 6.97878C9.96855 6.58619 9.89123 6.19745 9.74099 5.83474C9.59075 5.47204 9.37054 5.14247 9.09294 4.86487C8.81534 4.58727 8.48577 4.36706 8.12307 4.21682C7.76036 4.06658 7.37162 3.98926 6.97903 3.98926C6.58644 3.98926 6.19769 4.06658 5.83499 4.21682C5.47228 4.36706 5.14272 4.58727 4.86511 4.86487C4.58751 5.14247 4.3673 5.47204 4.21707 5.83474C4.06683 6.19745 3.9895 6.58619 3.9895 6.97878Z" stroke="#D3D3D3" stroke-linecap="round" stroke-linejoin="round"/>
<path d="M6.97905 1C8.56479 1 10.0856 1.62993 11.2069 2.75122C12.3282 3.87251 12.9581 5.39331 12.9581 6.97905C12.9581 9.64172 9.07172 14.8126 7.565 16.7159C7.49504 16.8045 7.40593 16.876 7.30436 16.9252C7.2028 16.9744 7.09141 17 6.97855 17C6.8657 17 6.75431 16.9744 6.65274 16.9252C6.55117 16.876 6.46207 16.8045 6.39211 16.7159C4.88638 14.8116 1 9.64172 1 6.97905C1 5.39331 1.62993 3.87251 2.75122 2.75122C3.87251 1.62993 5.39331 1 6.97905 1V1Z" stroke="#D3D3D3" stroke-linecap="round" stroke-linejoin="round"/>
</svg>
