<svg width="14" height="18" viewBox="0 0 14 18" fill="none" xmlns="http://www.w3.org/2000/svg">
<path d="M3.9895 6.54321C3.9895 6.93608 4.06683 7.32511 4.21707 7.68808C4.3673 8.05106 4.58751 8.38086 4.86511 8.65867C5.14272 8.93647 5.47228 9.15684 5.83499 9.30719C6.19769 9.45754 6.58644 9.53492 6.97903 9.53492C7.37162 9.53492 7.76036 9.45754 8.12307 9.30719C8.48577 9.15684 8.81534 8.93647 9.09294 8.65867C9.37054 8.38086 9.59075 8.05106 9.74099 7.68808C9.89123 7.32511 9.96855 6.93608 9.96855 6.54321C9.96855 6.15033 9.89123 5.7613 9.74099 5.39833C9.59075 5.03535 9.37054 4.70555 9.09294 4.42774C8.81534 4.14994 8.48577 3.92957 8.12307 3.77922C7.76036 3.62887 7.37162 3.55149 6.97903 3.55149C6.58644 3.55149 6.19769 3.62887 5.83499 3.77922C5.47228 3.92957 5.14272 4.14994 4.86511 4.42774C4.58751 4.70555 4.3673 5.03535 4.21707 5.39833C4.06683 5.7613 3.9895 6.15033 3.9895 6.54321Z" stroke="white" stroke-opacity="0.8" stroke-linecap="round" stroke-linejoin="round"/>
<path d="M6.97905 0.560043C8.56479 0.560043 10.0856 1.19044 11.2069 2.31255C12.3282 3.43466 12.9581 4.95657 12.9581 6.54347C12.9581 9.20809 9.07172 14.3828 7.565 16.2875C7.49504 16.3761 7.40593 16.4477 7.30436 16.497C7.2028 16.5462 7.09141 16.5718 6.97855 16.5718C6.8657 16.5718 6.75431 16.5462 6.65274 16.497C6.55117 16.4477 6.46207 16.3761 6.39211 16.2875C4.88638 14.3818 1 9.20809 1 6.54347C1 4.95657 1.62993 3.43466 2.75122 2.31255C3.87251 1.19044 5.39331 0.560043 6.97905 0.560043V0.560043Z" stroke="white" stroke-opacity="0.8" stroke-linecap="round" stroke-linejoin="round"/>
</svg>
