<svg width="20" height="15" viewBox="0 0 20 15" fill="none" xmlns="http://www.w3.org/2000/svg">
<circle cx="5.8125" cy="3.9375" r="3.4375" stroke="black" stroke-opacity="0.8"/>
<path d="M9.625 14H2C1.44772 14 0.997808 13.5511 1.00299 12.9988C1.03508 9.58296 1.41085 7.875 5.8125 7.875C10.1427 7.875 10.5767 10.079 10.6202 12.9996C10.6284 13.5518 10.1773 14 9.625 14Z" stroke="black" stroke-opacity="0.8"/>
<circle cx="13.8125" cy="3.9375" r="3.4375" stroke="black" stroke-opacity="0.8"/>
<path d="M17.625 14H10C9.44772 14 8.99781 13.5511 9.00299 12.9988C9.03508 9.58296 9.41085 7.875 13.8125 7.875C18.1427 7.875 18.5767 10.079 18.6202 12.9996C18.6284 13.5518 18.1773 14 17.625 14Z" fill="#F3F4F4" stroke="black" stroke-opacity="0.8"/>
</svg>
