<svg width="16" height="16" viewBox="0 0 16 16" fill="none" xmlns="http://www.w3.org/2000/svg">
<path d="M4.19289 4.19289H4.20077M6.92235 1H4.78435C3.4597 1 2.79738 1 2.29143 1.25779C1.84639 1.48455 1.48455 1.84639 1.25779 2.29143C1 2.79738 1 3.4597 1 4.78435V6.92235C1 7.5008 1 7.79007 1.06535 8.0623C1.12329 8.30363 1.21885 8.53432 1.34854 8.74601C1.4948 8.98466 1.69934 9.18917 2.10841 9.59828L5.81392 13.3038C6.75055 14.2404 7.21895 14.7088 7.75892 14.8842C8.23402 15.0386 8.74569 15.0386 9.22079 14.8842C9.76077 14.7088 10.2292 14.2404 11.1658 13.3038L13.3038 11.1658C14.2404 10.2292 14.7088 9.76077 14.8842 9.22079C15.0386 8.74569 15.0386 8.23402 14.8842 7.75892C14.7088 7.21895 14.2404 6.75055 13.3038 5.81392L9.59828 2.10841C9.18917 1.69934 8.98466 1.4948 8.74601 1.34854C8.53432 1.21885 8.30363 1.12329 8.0623 1.06535C7.79007 1 7.5008 1 6.92235 1ZM4.58709 4.19289C4.58709 4.4106 4.4106 4.58709 4.19289 4.58709C3.97518 4.58709 3.79868 4.4106 3.79868 4.19289C3.79868 3.97518 3.97518 3.79868 4.19289 3.79868C4.4106 3.79868 4.58709 3.97518 4.58709 4.19289Z" stroke="#D3D3D3" stroke-width="1.5" stroke-linecap="round" stroke-linejoin="round"/>
</svg>
