<svg width="12" height="17" viewBox="0 0 12 17" fill="none" xmlns="http://www.w3.org/2000/svg">
<path d="M11.4545 15.6363H10.9091V12.7272C10.9091 10.8271 9.82193 9.17921 8.23879 8.36362C9.83813 7.53967 10.9091 5.88511 10.9091 4V1.0909H11.4545C11.7557 1.0909 12 0.846751 12 0.545432C12 0.244146 11.7557 0 11.4545 0C9.26686 0 2.75509 0 0.545465 0C0.244342 0 0 0.244146 0 0.545465C0 0.846784 0.244342 1.09093 0.545465 1.09093H1.09093V4.00003C1.09093 5.88485 2.16157 7.53958 3.76121 8.36365C2.17804 9.17924 1.09093 10.8272 1.09093 12.7273V15.6364H0.545465C0.244342 15.6364 0 15.8805 0 16.1818C0 16.4832 0.244342 16.7273 0.545465 16.7273C4.1889 16.7273 7.81456 16.7273 11.4545 16.7273C11.7557 16.7273 12 16.4832 12 16.1818C12 15.8805 11.7557 15.6363 11.4545 15.6363ZM2.19849 4.32919C2.1718 4.01852 2.18179 4.15094 2.18179 1.0909H9.81817C9.81817 4.15094 9.82817 4.01852 9.80148 4.32919H2.19849ZM9.81817 15.0173C6.8091 12.5097 6.91877 12.5549 6.54545 12.423V11.8182C6.54545 11.5168 6.30111 11.2727 5.99998 11.2727C5.69886 11.2727 5.45452 11.5168 5.45452 11.8182V12.4229C5.08511 12.5535 5.20073 12.5014 2.18179 15.0173V12.7272C2.18179 10.8076 3.6072 9.21874 5.45452 8.95264V9.63633C5.45452 9.93765 5.69886 10.1818 5.99998 10.1818C6.30111 10.1818 6.54545 9.93765 6.54545 9.63633V8.95264C8.39276 9.21874 9.81817 10.8076 9.81817 12.7272V15.0173Z" fill="#D3D3D3"/>
</svg>
