<svg width="1440" height="573" viewBox="0 0 1440 573" fill="none" xmlns="http://www.w3.org/2000/svg">
<rect width="1440" height="573" fill="#F9F9F9"/>
<path d="M1451.19 492L1499.27 406.909L1451.19 322.386L1353.34 322.386L1303.56 406.909L1353.34 492L1451.19 492Z" stroke="#E6E6E6" stroke-width="5"/>
<path d="M1454.92 322.386L1503 237.295L1454.92 152.771L1357.07 152.771L1307.29 237.295L1357.07 322.386L1454.92 322.386Z" stroke="#E6E6E6" stroke-width="5"/>
<path d="M1304.88 404.397L1353.89 319.59L1304.88 234.783L1207.02 234.783L1157.25 319.306L1207.02 404.397L1304.88 404.397Z" stroke="#E6E6E6" stroke-width="5"/>
<path d="M1157.63 490.136L1206.64 405.329L1157.63 320.522L1059.78 320.522L1010 405.045L1059.78 490.136L1157.63 490.136Z" stroke="#E6E6E6" stroke-width="5"/>
<path d="M1011 404.168L1059.64 320.976L1010.63 236.168L912.776 236.168L863 320.692L912.776 405.783L1011 404.168Z" stroke="#E6E6E6" stroke-width="5"/>
<path d="M1307.44 234.783L1357.62 149.976L1307.44 65.1688L1207.27 65.1688L1156.32 149.692L1207.27 234.783L1307.44 234.783Z" stroke="#E6E6E6" stroke-width="5"/>
</svg>
