<svg width="18" height="18" viewBox="0 0 18 18" fill="none" xmlns="http://www.w3.org/2000/svg">
<path d="M15.9333 3.13379H2.06667C1.47756 3.13379 1 3.61135 1 4.20046V15.9338C1 16.5229 1.47756 17.0005 2.06667 17.0005H15.9333C16.5224 17.0005 17 16.5229 17 15.9338V4.20046C17 3.61135 16.5224 3.13379 15.9333 3.13379Z" stroke="black" stroke-linecap="round" stroke-linejoin="round"/>
<path d="M1 7.40039H17" stroke="black" stroke-linecap="round" stroke-linejoin="round"/>
<path d="M5.26666 4.73333V1" stroke="black" stroke-linecap="round" stroke-linejoin="round"/>
<path d="M12.7333 4.73333V1" stroke="black" stroke-linecap="round" stroke-linejoin="round"/>
<path d="M4.46668 10.5997C4.3194 10.5997 4.20001 10.4803 4.20001 10.3331C4.20001 10.1858 4.3194 10.0664 4.46668 10.0664" stroke="black"/>
<path d="M4.46667 10.5997C4.61395 10.5997 4.73334 10.4803 4.73334 10.3331C4.73334 10.1858 4.61395 10.0664 4.46667 10.0664" stroke="black"/>
<path d="M4.46668 14.3331C4.3194 14.3331 4.20001 14.2137 4.20001 14.0665C4.20001 13.9192 4.3194 13.7998 4.46668 13.7998" stroke="black"/>
<path d="M4.46667 14.3331C4.61395 14.3331 4.73334 14.2137 4.73334 14.0665C4.73334 13.9192 4.61395 13.7998 4.46667 13.7998" stroke="black"/>
<path d="M9 10.5997C8.85273 10.5997 8.73334 10.4803 8.73334 10.3331C8.73334 10.1858 8.85273 10.0664 9 10.0664" stroke="black"/>
<path d="M9 10.5997C9.14727 10.5997 9.26667 10.4803 9.26667 10.3331C9.26667 10.1858 9.14727 10.0664 9 10.0664" stroke="black"/>
<path d="M9 14.3331C8.85273 14.3331 8.73334 14.2137 8.73334 14.0665C8.73334 13.9192 8.85273 13.7998 9 13.7998" stroke="black"/>
<path d="M9 14.3331C9.14727 14.3331 9.26667 14.2137 9.26667 14.0665C9.26667 13.9192 9.14727 13.7998 9 13.7998" stroke="black"/>
<path d="M13.5333 10.6007C13.3861 10.6007 13.2667 10.4813 13.2667 10.334C13.2667 10.1868 13.3861 10.0674 13.5333 10.0674" stroke="black"/>
<path d="M13.5333 10.6007C13.6806 10.6007 13.8 10.4813 13.8 10.334C13.8 10.1868 13.6806 10.0674 13.5333 10.0674" stroke="black"/>
<path d="M13.5333 14.3331C13.3861 14.3331 13.2667 14.2137 13.2667 14.0665C13.2667 13.9192 13.3861 13.7998 13.5333 13.7998" stroke="black"/>
<path d="M13.5333 14.3331C13.6806 14.3331 13.8 14.2137 13.8 14.0665C13.8 13.9192 13.6806 13.7998 13.5333 13.7998" stroke="black"/>
</svg>
