<svg width="274" height="684" viewBox="0 0 274 684" fill="none" xmlns="http://www.w3.org/2000/svg">
<path d="M44.6115 454.285L-0.259067 529.121L89.5177 529.121L134.388 454.285L44.6115 454.285Z" stroke="#C9C473" stroke-opacity="0.8" stroke-width="5" stroke-miterlimit="10"/>
<path d="M-0.259073 229.708L-45.1296 304.579L44.6115 304.579L89.5177 229.708L-0.259073 229.708Z" stroke="#C9C473" stroke-opacity="0.8" stroke-width="5" stroke-miterlimit="10"/>
<path d="M134.317 304.579L89.4463 379.414L179.187 379.414L224.058 304.579L134.317 304.579Z" stroke="#C9C473" stroke-opacity="0.8" stroke-width="5" stroke-miterlimit="10"/>
<path d="M-0.259063 379.415L44.6115 454.285L134.388 454.285L89.5177 379.415L-0.259063 379.415Z" stroke="#C9C473" stroke-opacity="0.8" stroke-width="5" stroke-miterlimit="10"/>
<path d="M-90 379.449L-45.1295 454.285L44.6116 454.285L-0.258915 379.449L-90 379.449Z" stroke="#C9C473" stroke-opacity="0.8" stroke-width="5" stroke-miterlimit="10"/>
<path d="M134.388 154.873L179.259 229.708L269 229.708L224.129 154.873L134.388 154.873Z" stroke="#C9C473" stroke-opacity="0.8" stroke-width="5" stroke-miterlimit="10"/>
<path d="M89.5177 229.743L134.388 304.579L179.259 229.743L134.388 154.873L89.5177 229.743Z" stroke="#C9C473" stroke-opacity="0.8" stroke-width="5" stroke-miterlimit="10"/>
<path d="M134.388 454.285L179.295 529.121L224.165 454.285L179.295 379.415L134.388 454.285Z" stroke="#C9C473" stroke-opacity="0.8" stroke-width="5" stroke-miterlimit="10"/>
<path d="M44.6115 603.991L89.5178 678.827L134.388 603.991L89.5178 529.121L44.6115 603.991Z" stroke="#C9C473" stroke-opacity="0.8" stroke-width="5" stroke-miterlimit="10"/>
<path d="M-0.259083 80.0367L44.6115 154.873L89.5177 80.0023L44.6115 5.1665L-0.259083 80.0367Z" stroke="#C9C473" stroke-opacity="0.8" stroke-width="5" stroke-miterlimit="10"/>
<path d="M-45.1296 603.991L-0.259076 678.827L89.5177 678.827L44.6115 603.991L-45.1296 603.991Z" stroke="#C9C473" stroke-opacity="0.8" stroke-width="5" stroke-miterlimit="10"/>
<path d="M-45.0939 154.873L-0.223372 229.743L89.5177 229.743L44.6472 154.873L-45.0939 154.873Z" stroke="#C9C473" stroke-opacity="0.8" stroke-width="5" stroke-miterlimit="10"/>
<path d="M89.4463 529.121L134.317 603.991L179.187 529.121L134.317 454.285L89.4463 529.121Z" stroke="#C9C473" stroke-opacity="0.8" stroke-width="5" stroke-miterlimit="10"/>
</svg>
