<svg width="71" height="62" viewBox="0 0 71 62" fill="none" xmlns="http://www.w3.org/2000/svg">
<path d="M15.45 37.8497V51.2997H2" stroke="white" stroke-width="3" stroke-linecap="round" stroke-linejoin="round"/>
<path d="M55.8 24.3997V10.9497H69.25" stroke="white" stroke-width="3" stroke-linecap="round" stroke-linejoin="round"/>
<path d="M56.6429 10.9408C61.2807 15.7726 64.1131 22.0541 64.6637 28.7288C65.2142 35.4035 63.4494 42.0643 59.666 47.5907C55.8826 53.117 50.3114 57.1719 43.8896 59.0733C37.4677 60.9747 30.587 60.6065 24.4047 58.0307" stroke="white" stroke-width="3" stroke-linecap="round" stroke-linejoin="round"/>
<path d="M14.6042 51.3087C9.97644 46.4745 7.15293 40.1952 6.60778 33.5252C6.06263 26.8553 7.82905 20.2008 11.6104 14.6793C15.3918 9.15785 20.9578 5.10557 27.3739 3.20294C33.7899 1.30031 40.6652 1.66322 46.8453 4.23072" stroke="white" stroke-width="3" stroke-linecap="round" stroke-linejoin="round"/>
<path d="M39.3333 41.5C36.8801 41.5 34.5273 40.5255 32.7926 38.7907C31.0579 37.056 30.0833 34.7033 30.0833 32.25C30.0833 29.7967 31.0579 27.444 32.7926 25.7093C34.5273 23.9746 36.8801 23 39.3333 23" stroke="white" stroke-width="2.5" stroke-linecap="round" stroke-linejoin="round"/>
<path d="M27 30.4H36.8667" stroke="white" stroke-width="2.5" stroke-linecap="round" stroke-linejoin="round"/>
<path d="M27 34H37" stroke="white" stroke-width="2.5" stroke-linecap="round" stroke-linejoin="round"/>
</svg>
