<svg width="70" height="65" viewBox="0 0 70 65" fill="none" xmlns="http://www.w3.org/2000/svg">
<path d="M45.879 24.7478L55.0807 13.2462" stroke="white" stroke-width="3" stroke-linecap="round" stroke-linejoin="round"/>
<path d="M32.9438 22.2512L41.1522 25.8987" stroke="white" stroke-width="3" stroke-linecap="round" stroke-linejoin="round"/>
<path d="M14.776 30.2199L27.5023 22.585" stroke="white" stroke-width="3" stroke-linecap="round" stroke-linejoin="round"/>
<path d="M45.1089 41.0148L54.8165 35.6224" stroke="white" stroke-width="3" stroke-linecap="round" stroke-linejoin="round"/>
<path d="M30.136 42.5079H39.352" stroke="white" stroke-width="3" stroke-linecap="round" stroke-linejoin="round"/>
<path d="M14.776 48.652L24.3156 43.8822" stroke="white" stroke-width="3" stroke-linecap="round" stroke-linejoin="round"/>
<path d="M27.064 21.004C27.064 21.8188 27.3877 22.6001 27.9638 23.1762C28.5399 23.7524 29.3213 24.076 30.136 24.076C30.9508 24.076 31.7321 23.7524 32.3083 23.1762C32.8844 22.6001 33.208 21.8188 33.208 21.004C33.208 20.1893 32.8844 19.4079 32.3083 18.8318C31.7321 18.2557 30.9508 17.932 30.136 17.932C29.3213 17.932 28.5399 18.2557 27.9638 18.8318C27.3877 19.4079 27.064 20.1893 27.064 21.004Z" stroke="white" stroke-width="3" stroke-linecap="round" stroke-linejoin="round"/>
<path d="M40.888 27.1479C40.888 27.9627 41.2117 28.744 41.7878 29.3202C42.3639 29.8963 43.1453 30.2199 43.96 30.2199C44.7747 30.2199 45.5561 29.8963 46.1322 29.3202C46.7083 28.744 47.032 27.9627 47.032 27.1479C47.032 26.3332 46.7083 25.5518 46.1322 24.9757C45.5561 24.3996 44.7747 24.0759 43.96 24.0759C43.1453 24.0759 42.3639 24.3996 41.7878 24.9757C41.2117 25.5518 40.888 26.3332 40.888 27.1479V27.1479Z" stroke="white" stroke-width="3" stroke-linecap="round" stroke-linejoin="round"/>
<path d="M54.712 11.7879C54.712 12.6027 55.0356 13.3841 55.6117 13.9602C56.1879 14.5363 56.9692 14.8599 57.784 14.8599C58.5987 14.8599 59.3801 14.5363 59.9562 13.9602C60.5323 13.3841 60.856 12.6027 60.856 11.7879C60.856 10.9732 60.5323 10.1918 59.9562 9.61571C59.3801 9.0396 58.5987 8.71594 57.784 8.71594C56.9692 8.71594 56.1879 9.0396 55.6117 9.61571C55.0356 10.1918 54.712 10.9732 54.712 11.7879V11.7879Z" stroke="white" stroke-width="3" stroke-linecap="round" stroke-linejoin="round"/>
<path d="M54.712 34.828C54.712 35.6427 55.0356 36.4241 55.6117 37.0002C56.1879 37.5763 56.9692 37.9 57.784 37.9C58.5987 37.9 59.3801 37.5763 59.9562 37.0002C60.5323 36.4241 60.856 35.6427 60.856 34.828C60.856 34.0132 60.5323 33.2319 59.9562 32.6557C59.3801 32.0796 58.5987 31.756 57.784 31.756C56.9692 31.756 56.1879 32.0796 55.6117 32.6557C55.0356 33.2319 54.712 34.0132 54.712 34.828Z" stroke="white" stroke-width="3" stroke-linecap="round" stroke-linejoin="round"/>
<path d="M39.352 42.508C39.352 43.3228 39.6756 44.1042 40.2518 44.6803C40.8279 45.2564 41.6092 45.58 42.424 45.58C43.2387 45.58 44.0201 45.2564 44.5962 44.6803C45.1723 44.1042 45.496 43.3228 45.496 42.508C45.496 41.6933 45.1723 40.9119 44.5962 40.3358C44.0201 39.7597 43.2387 39.436 42.424 39.436C41.6092 39.436 40.8279 39.7597 40.2518 40.3358C39.6756 40.9119 39.352 41.6933 39.352 42.508V42.508Z" stroke="white" stroke-width="3" stroke-linecap="round" stroke-linejoin="round"/>
<path d="M23.992 42.508C23.992 43.3228 24.3157 44.1042 24.8918 44.6803C25.4679 45.2564 26.2493 45.58 27.064 45.58C27.8787 45.58 28.6601 45.2564 29.2362 44.6803C29.8123 44.1042 30.136 43.3228 30.136 42.508C30.136 41.6933 29.8123 40.9119 29.2362 40.3358C28.6601 39.7597 27.8787 39.436 27.064 39.436C26.2493 39.436 25.4679 39.7597 24.8918 40.3358C24.3157 40.9119 23.992 41.6933 23.992 42.508Z" stroke="white" stroke-width="3" stroke-linecap="round" stroke-linejoin="round"/>
<path d="M7.09601 5.13196V58.38H64.44" stroke="white" stroke-width="3" stroke-linecap="round" stroke-linejoin="round"/>
<path d="M2 7L7 2L12 7" stroke="white" stroke-width="3" stroke-linecap="round" stroke-linejoin="round"/>
<path d="M63 54L68 58.5L63 63" stroke="white" stroke-width="3" stroke-linecap="round" stroke-linejoin="round"/>
</svg>
