<svg width="60" height="61" viewBox="0 0 60 61" fill="none" xmlns="http://www.w3.org/2000/svg">
<path fill-rule="evenodd" clip-rule="evenodd" d="M37.5773 31.8412C37.8606 31.4633 38.3053 31.2408 38.7776 31.2408H51.0273C52.092 31.2408 53.113 31.6638 53.8659 32.4166C54.6187 33.1694 55.0416 34.1905 55.0416 35.2552V39.0266C55.0416 39.8551 54.3701 40.5266 53.5416 40.5266C52.7132 40.5266 52.0416 39.8551 52.0416 39.0266V35.2552C52.0416 34.9861 51.9348 34.7281 51.7446 34.5379C51.5543 34.3477 51.2963 34.2408 51.0273 34.2408H39.5278L35.266 39.9263C35.2553 39.9406 35.2444 39.9546 35.2332 39.9685C34.7937 40.5133 34.2422 40.9572 33.6161 41.2703C32.99 41.5833 32.304 41.7581 31.6045 41.7829C31.5868 41.7835 31.5691 41.7838 31.5514 41.7838H27.1413C26.3129 41.7838 25.6413 41.1122 25.6413 40.2838C25.6413 39.4554 26.3129 38.7838 27.1413 38.7838H31.5211C31.7831 38.7714 32.0397 38.7044 32.2745 38.587C32.5092 38.4696 32.7167 38.3046 32.8839 38.1025L37.5773 31.8412Z" fill="black"/>
<path fill-rule="evenodd" clip-rule="evenodd" d="M55.6562 37.5266C56.2328 37.5264 56.8026 37.6503 57.327 37.89C57.8517 38.1299 58.3186 38.4801 58.6957 38.9167C59.0729 39.3533 59.3515 39.866 59.5126 40.42C59.6737 40.974 59.7135 41.5563 59.6293 42.127L59.6285 42.1325C59.3294 44.1084 58.8851 45.9824 58.4162 47.9601C58.1188 49.2144 57.8115 50.5106 57.5251 51.9008C57.5132 51.9588 57.4978 52.016 57.4791 52.0721C57.0207 53.4489 56.3559 54.4871 55.2674 55.0716C54.272 55.6062 53.151 55.6125 52.2845 55.6125H38.4557C38.1596 55.6125 37.8701 55.5248 37.6237 55.3606L34.2301 53.0982H27.1413C26.3129 53.0982 25.6413 52.4266 25.6413 51.5982C25.6413 50.7698 26.3129 50.0982 27.1413 50.0982H34.6843C34.9804 50.0982 35.2699 50.1858 35.5163 50.3501L38.9099 52.6125H52.2845C53.2459 52.6125 53.6133 52.5547 53.848 52.4286C53.9859 52.3546 54.2803 52.1452 54.6057 51.2042C54.9298 49.6387 55.2476 48.3062 55.5429 47.0683C55.9843 45.2175 56.3753 43.578 56.6618 41.6868C56.6826 41.5433 56.6725 41.397 56.632 41.2577C56.5913 41.1177 56.5209 40.9882 56.4255 40.8778C56.3302 40.7675 56.2123 40.679 56.0797 40.6184C55.9471 40.5578 55.803 40.5265 55.6573 40.5266L46.0088 40.5266C45.1803 40.5266 44.5088 39.855 44.5088 39.0266C44.5088 38.1982 45.1803 37.5266 46.0088 37.5266H55.6562C55.6561 37.5266 55.6563 37.5266 55.6562 37.5266Z" fill="black"/>
<path fill-rule="evenodd" clip-rule="evenodd" d="M22.0859 56.0149C22.0862 56.5914 21.9622 57.1613 21.7225 57.6857C21.4826 58.2104 21.1324 58.6773 20.6958 59.0544C20.2593 59.4316 19.7465 59.7102 19.1925 59.8713C18.6385 60.0324 18.0563 60.0722 17.4855 59.988L17.48 59.9871C15.5041 59.688 13.6301 59.2437 11.6525 58.7749C10.3981 58.4775 9.10196 58.1702 7.71168 57.8838C7.65374 57.8718 7.59656 57.8565 7.54043 57.8378C6.16357 57.3793 5.12546 56.7146 4.5409 55.6261C4.0063 54.6307 4.00001 53.5097 4.00001 52.6432L4.00001 38.8144C4.00001 38.5183 4.08767 38.2288 4.25194 37.9824L6.51433 34.5888L6.51433 27.5C6.51433 26.6716 7.1859 26 8.01433 26C8.84276 26 9.51433 26.6716 9.51433 27.5L9.51433 35.0429C9.51433 35.3391 9.42667 35.6286 9.2624 35.875L7.00001 39.2686L7.00001 52.6432C7.00001 53.6046 7.05783 53.972 7.18387 54.2067C7.2579 54.3446 7.4673 54.639 8.4083 54.9643C9.97385 55.2885 11.3063 55.6063 12.5442 55.9015C14.395 56.343 16.0345 56.734 17.9257 57.0204C18.0692 57.0413 18.2155 57.0311 18.3548 56.9906C18.4948 56.9499 18.6244 56.8795 18.7347 56.7842C18.845 56.6889 18.9335 56.571 18.9941 56.4384C19.0547 56.3058 19.086 56.1617 19.0859 56.0159L19.0859 46.3674C19.0859 45.539 19.7575 44.8674 20.5859 44.8674C21.4143 44.8674 22.0859 45.539 22.0859 46.3674L22.0859 56.0149C22.0859 56.0148 22.0859 56.015 22.0859 56.0149Z" fill="black"/>
<path fill-rule="evenodd" clip-rule="evenodd" d="M32.7157 6.01634C33.4685 5.26351 34.4896 4.84058 35.5543 4.84058H39.3257C40.1542 4.84058 40.8257 5.51215 40.8257 6.34058C40.8257 7.169 40.1542 7.84058 39.3257 7.84058H35.5543C35.2852 7.84058 35.0273 7.94744 34.837 8.13766C34.6468 8.32788 34.5399 8.58588 34.5399 8.85489V20.3469L40.2254 24.6087C40.2387 24.6187 40.2518 24.6288 40.2648 24.6392C40.8117 25.0783 41.2573 25.6304 41.5709 26.2578C41.8846 26.8851 42.059 27.5728 42.0821 28.2738C42.0826 28.2903 42.0829 28.3068 42.0829 28.3232V32.7409C42.0829 33.5693 41.4113 34.2409 40.5829 34.2409C39.7545 34.2409 39.0829 33.5693 39.0829 32.7409V28.3516C39.0713 28.09 39.0048 27.8337 38.8877 27.5994C38.7705 27.3651 38.6054 27.1582 38.4032 26.992L32.1403 22.2973C31.7624 22.0141 31.5399 21.5694 31.5399 21.0971V8.85489C31.5399 7.79023 31.9629 6.76917 32.7157 6.01634Z" fill="black"/>
<path fill-rule="evenodd" clip-rule="evenodd" d="M40.7191 0.367184C41.2731 0.206087 41.8554 0.166301 42.4261 0.250535L42.4315 0.251322C44.4163 0.551537 46.2948 0.997611 48.2786 1.46867C49.5268 1.76506 50.8166 2.07134 52.2009 2.35741C52.2585 2.36932 52.3154 2.38461 52.3712 2.4032C53.7481 2.86167 54.7862 3.52642 55.3707 4.61489C55.9053 5.61033 55.9116 6.73134 55.9116 7.59785V21.4266C55.9116 21.7227 55.824 22.0122 55.6597 22.2586L53.3973 25.6522V32.741C53.3973 33.5694 52.7257 34.241 51.8973 34.241C51.0689 34.241 50.3973 33.5694 50.3973 32.741V25.1981C50.3973 24.9019 50.485 24.6124 50.6492 24.366L52.9116 20.9724V7.59785C52.9116 6.63645 52.8538 6.26898 52.7277 6.03429C52.6537 5.89643 52.4443 5.60195 51.5029 5.27651C49.9457 4.95308 48.6189 4.63621 47.3862 4.3418C45.5282 3.89802 43.8838 3.5053 41.986 3.21808C41.8425 3.1972 41.6961 3.20736 41.5568 3.24786C41.4168 3.28857 41.2873 3.35896 41.1769 3.45427C41.0666 3.54957 40.9782 3.66753 40.9175 3.80011C40.8569 3.93269 40.8256 4.07678 40.8257 4.22256L40.8257 13.866C40.8257 14.6945 40.1541 15.366 39.3257 15.366C38.4973 15.366 37.8257 14.6945 37.8257 13.866V4.22394C37.8257 4.22384 37.8257 4.22404 37.8257 4.22394C37.8255 3.64736 37.9494 3.07718 38.1891 2.55279C38.429 2.02807 38.7792 1.56123 39.2158 1.18407C39.6524 0.806906 40.1651 0.528283 40.7191 0.367184Z" fill="black"/>
<path fill-rule="evenodd" clip-rule="evenodd" d="M28.5768 18.1674C28.5945 18.1668 28.6121 18.1665 28.6298 18.1665H33.0399C33.8684 18.1665 34.5399 18.8381 34.5399 19.6665C34.5399 20.4949 33.8684 21.1665 33.0399 21.1665H28.6602C28.3982 21.1789 28.1415 21.2459 27.9068 21.3633C27.6721 21.4807 27.4645 21.6457 27.2974 21.8478L22.6039 28.1091C22.3206 28.487 21.8759 28.7094 21.4037 28.7094H9.15393C8.08927 28.7094 7.06822 28.2865 6.31538 27.5337C5.56255 26.7809 5.13962 25.7598 5.13962 24.6951V20.9237C5.13962 20.0952 5.81119 19.4237 6.63962 19.4237C7.46804 19.4237 8.13962 20.0952 8.13962 20.9237V24.6951C8.13962 24.9641 8.24648 25.2221 8.4367 25.4124C8.62692 25.6026 8.88492 25.7094 9.15393 25.7094H20.6534L24.9153 20.024C24.926 20.0097 24.9369 19.9957 24.9481 19.9818C25.3876 19.437 25.9391 18.9931 26.5651 18.68C27.1912 18.367 27.8773 18.1922 28.5768 18.1674Z" fill="black"/>
<path fill-rule="evenodd" clip-rule="evenodd" d="M4.91381 4.87866C5.90925 4.34406 7.03026 4.33777 7.89677 4.33777H21.7255C22.0216 4.33777 22.3112 4.42543 22.5576 4.58969L25.9511 6.85208H33.0399C33.8683 6.85208 34.5399 7.52366 34.5399 8.35208C34.5399 9.18051 33.8683 9.85208 33.0399 9.85208H25.497C25.2008 9.85208 24.9113 9.76443 24.6649 9.60016L21.2713 7.33777H7.89677C6.93537 7.33777 6.56791 7.39559 6.33321 7.52163C6.19529 7.5957 5.9006 7.8053 5.57499 8.74777C5.25426 10.2776 4.94054 11.5886 4.64889 12.8073C4.19781 14.6923 3.79954 16.3566 3.50987 18.2682C3.48981 18.411 3.50041 18.5563 3.54096 18.6947C3.58188 18.8343 3.65236 18.9635 3.74761 19.0734C3.84286 19.1834 3.96065 19.2716 4.09299 19.332C4.22532 19.3924 4.36911 19.4237 4.5146 19.4237H14.1725C15.0009 19.4237 15.6725 20.0952 15.6725 20.9237C15.6725 21.7521 15.0009 22.4237 14.1725 22.4237H4.51543C4.51529 22.4237 4.51557 22.4237 4.51543 22.4237C3.9398 22.4238 3.37046 22.3001 2.84684 22.061C2.32308 21.8218 1.85691 21.4727 1.47995 21.0375C1.10299 20.6023 0.824066 20.0911 0.6621 19.5386C0.500134 18.9861 0.458921 18.4052 0.541257 17.8353L0.542702 17.8253C0.846366 15.8192 1.29772 13.9236 1.7755 11.9167C2.06868 10.6853 2.37181 9.41201 2.65692 8.04568C2.66874 7.98903 2.68383 7.9331 2.70212 7.87819C3.16059 6.50133 3.82534 5.46322 4.91381 4.87866Z" fill="black"/>
<path fill-rule="evenodd" clip-rule="evenodd" d="M19.5984 25.7095C20.4268 25.7095 21.0984 26.381 21.0984 27.2095V31.5988C21.11 31.8603 21.1765 32.1166 21.2937 32.351C21.4108 32.5852 21.5759 32.7922 21.7781 32.9583L28.0411 37.653C28.4189 37.9363 28.6414 38.381 28.6414 38.8533V51.0955C28.6414 52.1601 28.2184 53.1812 27.4656 53.934C26.7128 54.6869 25.6917 55.1098 24.627 55.1098H20.8556C20.0271 55.1098 19.3556 54.4382 19.3556 53.6098C19.3556 52.7814 20.0271 52.1098 20.8556 52.1098H24.627C24.8961 52.1098 25.1541 52.0029 25.3443 51.8127C25.5345 51.6225 25.6414 51.3645 25.6414 51.0955V39.6035L19.9559 35.3417C19.9426 35.3317 19.9295 35.3215 19.9165 35.3111C19.3696 34.872 18.924 34.3199 18.6104 33.6926C18.2967 33.0653 18.1224 32.3776 18.0992 31.6766C18.0987 31.6601 18.0984 31.6436 18.0984 31.6271V27.2095C18.0984 26.381 18.77 25.7095 19.5984 25.7095Z" fill="black"/>
</svg>
