<svg width="71" height="62" viewBox="0 0 71 62" fill="none" xmlns="http://www.w3.org/2000/svg">
<path fill-rule="evenodd" clip-rule="evenodd" d="M46.3657 5.38507C40.4506 2.92766 33.8701 2.58032 27.7292 4.40136C21.5883 6.2224 16.2609 10.1009 12.6417 15.3856C9.0225 20.6704 7.33182 27.0395 7.85359 33.4234C8.32188 39.153 10.5467 44.5814 14.2 48.979V37.8497C14.2 37.1594 14.7596 36.5997 15.45 36.5997C16.1404 36.5997 16.7 37.1594 16.7 37.8497V51.2997C16.7 51.9901 16.1404 52.5497 15.45 52.5497H14.7543C14.6546 52.5617 14.5539 52.5617 14.4544 52.5497H2C1.30964 52.5497 0.75 51.9901 0.75 51.2997C0.75 50.6094 1.30964 50.0497 2 50.0497H11.8492C8.12268 45.3546 5.85361 39.6432 5.3619 33.6271C4.79338 26.6711 6.63555 19.7313 10.5791 13.973C14.5226 8.21479 20.3273 3.98873 27.0185 2.00452C33.7096 0.0203096 40.8798 0.398779 47.3249 3.07638C47.9624 3.34124 48.2645 4.07277 47.9997 4.71029C47.7348 5.34782 47.0033 5.64993 46.3657 5.38507ZM59.4024 12.1997H69.25C69.9404 12.1997 70.5 11.6401 70.5 10.9497C70.5 10.2594 69.9404 9.69975 69.25 9.69975H56.7927C56.6931 9.68779 56.5924 9.68777 56.4928 9.69975H55.8C55.1096 9.69975 54.55 10.2594 54.55 10.9497V24.3997C54.55 25.0901 55.1096 25.6497 55.8 25.6497C56.4904 25.6497 57.05 25.0901 57.05 24.3997V13.2698C60.7123 17.6663 62.9449 23.0973 63.4179 28.8315C63.9448 35.22 62.2557 41.5951 58.6345 46.8845C55.0134 52.1739 49.6811 56.0549 43.5347 57.8747C37.3883 59.6945 30.8026 59.3422 24.8855 56.8769C24.2482 56.6114 23.5164 56.9127 23.2509 57.55C22.9854 58.1872 23.2867 58.9191 23.924 59.1846C30.3714 61.8708 37.5472 62.2548 44.2444 60.2719C50.9417 58.2889 56.7517 54.0602 60.6974 48.2968C64.6431 42.5334 66.4836 35.587 65.9094 28.626C65.4129 22.6064 63.1368 16.8935 59.4024 12.1997ZM39.3333 24.25C37.2116 24.25 35.1768 25.0929 33.6765 26.5931C32.9364 27.3333 32.3562 28.2035 31.9584 29.15H36.8667C37.557 29.15 38.1167 29.7096 38.1167 30.4C38.1167 31.0904 37.557 31.65 36.8667 31.65H31.3558C31.3409 31.849 31.3333 32.0491 31.3333 32.25C31.3333 32.4173 31.3386 32.584 31.349 32.75H37C37.6904 32.75 38.25 33.3096 38.25 34C38.25 34.6904 37.6904 35.25 37 35.25H31.9171C32.3157 36.2353 32.9104 37.1408 33.6765 37.9069C35.1768 39.4071 37.2116 40.25 39.3333 40.25C40.0237 40.25 40.5833 40.8096 40.5833 41.5C40.5833 42.1904 40.0237 42.75 39.3333 42.75C36.5486 42.75 33.8778 41.6438 31.9087 39.6746C30.6645 38.4304 29.7648 36.9062 29.271 35.25H27C26.3096 35.25 25.75 34.6904 25.75 34C25.75 33.3096 26.3096 32.75 27 32.75H28.8452C28.8373 32.5838 28.8333 32.4171 28.8333 32.25C28.8333 32.0493 28.8391 31.8493 28.8505 31.65H27C26.3096 31.65 25.75 31.0904 25.75 30.4C25.75 29.7096 26.3096 29.15 27 29.15H29.3014C29.8012 27.5325 30.6896 26.0445 31.9087 24.8254C33.8778 22.8562 36.5486 21.75 39.3333 21.75C40.0237 21.75 40.5833 22.3096 40.5833 23C40.5833 23.6904 40.0237 24.25 39.3333 24.25Z" fill="black"/>
</svg>
