<svg width="60" height="61" viewBox="0 0 60 61" fill="none" xmlns="http://www.w3.org/2000/svg">
<path d="M53.5416 39.3191V35.5476C53.5416 34.8808 53.2767 34.2413 52.8052 33.7697C52.3337 33.2982 51.6942 33.0333 51.0273 33.0333H38.7776L34.0658 39.3191C33.7612 39.6966 33.3791 40.0042 32.9453 40.2211C32.5115 40.438 32.0361 40.5591 31.5514 40.5763H27.1413" stroke="white" stroke-width="3" stroke-linecap="round" stroke-linejoin="round"/>
<path d="M27.1413 51.8907H34.6843L38.4557 54.405H52.2845C54.1124 54.405 55.2614 54.2768 56.056 51.8907C56.8329 48.1192 57.6601 45.4063 58.1454 42.2005C58.1981 41.843 58.1732 41.4783 58.0723 41.1313C57.9714 40.7844 57.7969 40.4632 57.5606 40.1897C57.3244 39.9163 57.032 39.697 56.7034 39.5467C56.3747 39.3965 56.0175 39.3188 55.6562 39.3191H46.0088" stroke="white" stroke-width="3" stroke-linecap="round" stroke-linejoin="round"/>
<path d="M39.3257 6.633H35.5542C34.8874 6.633 34.2479 6.8979 33.7764 7.36942C33.3048 7.84095 33.0399 8.48047 33.0399 9.14731V21.3895L39.3257 26.1013C39.7041 26.4051 40.0123 26.787 40.2293 27.221C40.4463 27.655 40.5669 28.1307 40.5829 28.6157V33.0333" stroke="white" stroke-width="3" stroke-linecap="round" stroke-linejoin="round"/>
<path d="M51.8973 33.0335V25.4905L54.4116 21.7191V7.89033C54.4116 6.06242 54.2834 4.91338 51.8973 4.11885C48.1258 3.33942 45.4154 2.51221 42.2071 2.02694C41.8496 1.97418 41.485 1.9991 41.138 2.1C40.791 2.2009 40.4698 2.37542 40.1964 2.61165C39.9229 2.84788 39.7036 3.14028 39.5534 3.46893C39.4031 3.79758 39.3255 4.15475 39.3257 4.51611V14.1585" stroke="white" stroke-width="3" stroke-linecap="round" stroke-linejoin="round"/>
<path d="M6.63962 21.2161V24.9876C6.63962 25.6545 6.90452 26.294 7.37604 26.7655C7.84757 27.237 8.4871 27.5019 9.15393 27.5019H21.4037L26.1155 21.2161C26.42 20.8387 26.8022 20.5311 27.236 20.3142C27.6698 20.0973 28.1451 19.9761 28.6298 19.959H33.0399" stroke="white" stroke-width="3" stroke-linecap="round" stroke-linejoin="round"/>
<path d="M33.0399 8.64456H25.497L21.7255 6.13025H7.89677C6.06886 6.13025 4.91982 6.25848 4.12529 8.64456C3.33831 12.416 2.5111 15.1365 2.02584 18.3423C1.97427 18.6992 2.00008 19.063 2.10153 19.4091C2.20297 19.7552 2.37768 20.0754 2.61378 20.348C2.84989 20.6206 3.14187 20.8392 3.46991 20.989C3.79796 21.1388 4.15438 21.2162 4.51501 21.2161H14.1725" stroke="white" stroke-width="3" stroke-linecap="round" stroke-linejoin="round"/>
<path d="M20.8556 53.9023H24.627C25.2939 53.9023 25.9334 53.6374 26.4049 53.1658C26.8765 52.6943 27.1413 52.0548 27.1413 51.3879V39.1457L20.8556 34.4339C20.4772 34.1302 20.169 33.7482 19.952 33.3143C19.735 32.8803 19.6144 32.4045 19.5984 31.9196V27.502" stroke="white" stroke-width="3" stroke-linecap="round" stroke-linejoin="round"/>
<path d="M8.284 27.502V35.0449L5.76968 38.8164V52.6451C5.76968 54.473 5.89791 55.6221 8.284 56.4166C12.0555 57.196 14.7659 58.0232 17.9742 58.5085C18.3317 58.5613 18.6963 58.5363 19.0433 58.4354C19.3903 58.3345 19.7115 58.16 19.9849 57.9238C20.2584 57.6876 20.4777 57.3952 20.628 57.0665C20.7782 56.7379 20.8558 56.3807 20.8556 56.0193V46.3769" stroke="white" stroke-width="3" stroke-linecap="round" stroke-linejoin="round"/>
</svg>
