<svg width="62" height="62" viewBox="0 0 62 62" fill="none" xmlns="http://www.w3.org/2000/svg">
<path d="M30.9986 2V5.86684" stroke="white" stroke-width="3" stroke-linecap="round" stroke-linejoin="round"/>
<path d="M11.6644 21.3342H15.8071" stroke="white" stroke-width="3" stroke-linecap="round" stroke-linejoin="round"/>
<path d="M50.3328 21.3342H46.1902" stroke="white" stroke-width="3" stroke-linecap="round" stroke-linejoin="round"/>
<path d="M15.0518 8.70251L18.5707 12.2188" stroke="white" stroke-width="3" stroke-linecap="round" stroke-linejoin="round"/>
<path d="M46.9454 8.70251L43.4266 12.2188" stroke="white" stroke-width="3" stroke-linecap="round" stroke-linejoin="round"/>
<path d="M40.6657 21.3343C40.6676 19.591 40.198 17.8797 39.3066 16.3815C38.4153 14.8833 37.1354 13.654 35.6024 12.8237C34.0695 11.9935 32.3406 11.5933 30.5988 11.6654C28.857 11.7375 27.1671 12.2793 25.708 13.2334C24.2489 14.1874 23.075 15.5183 22.3106 17.0851C21.5461 18.6518 21.2196 20.3962 21.3655 22.1334C21.5114 23.8705 22.1244 25.536 23.1395 26.9532C24.1546 28.3705 25.534 29.4869 27.1318 30.1843V34.8683H34.8655V30.1843C36.5887 29.4336 38.0553 28.1965 39.0856 26.6244C40.1159 25.0524 40.6651 23.2139 40.6657 21.3343V21.3343Z" stroke="white" stroke-width="3" stroke-linecap="round" stroke-linejoin="round"/>
<path d="M27.1318 40.6684H34.8655" stroke="white" stroke-width="3" stroke-linecap="round" stroke-linejoin="round"/>
<path d="M42.3439 43.5685C42.3439 45.3633 43.0569 47.0845 44.3259 48.3535C45.595 49.6226 47.3162 50.3355 49.1109 50.3355C50.9056 50.3355 52.6268 49.6226 53.8959 48.3535C55.1649 47.0845 55.8779 45.3633 55.8779 43.5685C55.8779 41.7738 55.1649 40.0526 53.8959 38.7836C52.6268 37.5145 50.9056 36.8016 49.1109 36.8016C47.3162 36.8016 45.595 37.5145 44.3259 38.7836C43.0569 40.0526 42.3439 41.7738 42.3439 43.5685Z" stroke="white" stroke-width="3" stroke-linecap="round" stroke-linejoin="round"/>
<path d="M60 60.0024C59.2119 57.7424 57.7401 55.7835 55.7888 54.3974C53.8374 53.0113 51.5032 52.2667 49.1097 52.2667C46.7162 52.2667 44.3819 53.0113 42.4306 54.3974C40.4793 55.7835 39.0075 57.7424 38.2194 60.0024" stroke="white" stroke-width="3" stroke-linecap="round" stroke-linejoin="round"/>
<path d="M6.11938 43.5685C6.11938 44.4572 6.29442 45.3371 6.63449 46.1582C6.97456 46.9792 7.47301 47.7251 8.10138 48.3535C8.72976 48.9819 9.47574 49.4803 10.2967 49.8204C11.1178 50.1605 11.9977 50.3355 12.8864 50.3355C13.775 50.3355 14.655 50.1605 15.476 49.8204C16.297 49.4803 17.043 48.9819 17.6713 48.3535C18.2997 47.7251 18.7981 46.9792 19.1382 46.1582C19.4783 45.3371 19.6533 44.4572 19.6533 43.5685C19.6533 42.6799 19.4783 41.7999 19.1382 40.9789C18.7981 40.1579 18.2997 39.4119 17.6713 38.7836C17.043 38.1552 16.297 37.6568 15.476 37.3167C14.655 36.9766 13.775 36.8016 12.8864 36.8016C11.9977 36.8016 11.1178 36.9766 10.2967 37.3167C9.47574 37.6568 8.72976 38.1552 8.10138 38.7836C7.47301 39.4119 6.97456 40.1579 6.63449 40.9789C6.29442 41.7999 6.11938 42.6799 6.11938 43.5685V43.5685Z" stroke="white" stroke-width="3" stroke-linecap="round" stroke-linejoin="round"/>
<path d="M23.7806 60.0024C22.9925 57.7424 21.5207 55.7835 19.5694 54.3974C17.6181 53.0113 15.2838 52.2667 12.8903 52.2667C10.4968 52.2667 8.16255 53.0113 6.21122 54.3974C4.25989 55.7835 2.78813 57.7424 2 60.0024" stroke="white" stroke-width="3" stroke-linecap="round" stroke-linejoin="round"/>
</svg>
