<svg width="60" height="61" viewBox="0 0 60 61" fill="none" xmlns="http://www.w3.org/2000/svg">
<path d="M58 59.145C56.8282 55.8084 54.6503 52.9173 51.7664 50.8704C48.8826 48.8236 45.4348 47.7216 41.8984 47.7164C38.3655 47.7231 34.9216 48.8261 32.0421 50.8731C29.1626 52.9202 26.9894 55.8104 25.8222 59.145" stroke="white" stroke-width="3" stroke-linecap="round" stroke-linejoin="round"/>
<path d="M41.873 43.8816C47.6518 43.8816 52.3365 39.1969 52.3365 33.4181C52.3365 27.6393 47.6518 22.9546 41.873 22.9546C36.0942 22.9546 31.4095 27.6393 31.4095 33.4181C31.4095 39.1969 36.0942 43.8816 41.873 43.8816Z" stroke="white" stroke-width="3" stroke-linecap="round" stroke-linejoin="round"/>
<path d="M28.5397 21.0497H24.8571V26.764L17.2381 21.0497H5.68254C4.69436 21.0168 3.75771 20.6009 3.07052 19.89C2.38333 19.1791 1.99945 18.2289 2 17.2402V5.81164C1.99945 4.82291 2.38333 3.8727 3.07052 3.16182C3.75771 2.45094 4.69436 2.03507 5.68254 2.00212H28.5397C29.0505 1.98508 29.5596 2.07102 30.0366 2.25482C30.5135 2.43863 30.9486 2.71653 31.3159 3.07199C31.6832 3.42745 31.9752 3.85319 32.1746 4.32386C32.3739 4.79453 32.4765 5.3005 32.4762 5.81164V17.2402C32.4765 17.7514 32.3739 18.2573 32.1746 18.728C31.9752 19.1987 31.6832 19.6244 31.3159 19.9799C30.9486 20.3353 30.5135 20.6132 30.0366 20.797C29.5596 20.9808 29.0505 21.0668 28.5397 21.0497Z" stroke="white" stroke-width="3" stroke-linecap="round" stroke-linejoin="round"/>
<path d="M21.5556 11.526H10.7619" stroke="white" stroke-width="3" stroke-linecap="round" stroke-linejoin="round"/>
<path d="M14.1905 47.7165C18.3983 47.7165 21.8095 44.3053 21.8095 40.0974C21.8095 35.8896 18.3983 32.4784 14.1905 32.4784C9.98258 32.4784 6.57141 35.8896 6.57141 40.0974C6.57141 44.3053 9.98258 47.7165 14.1905 47.7165Z" stroke="white" stroke-width="3" stroke-linecap="round" stroke-linejoin="round"/>
<path d="M20.946 53.7609C18.9936 52.308 16.6242 51.5242 14.1905 51.526C11.8326 51.5326 9.53449 52.2684 7.61119 53.6324C5.6879 54.9965 4.23359 56.922 3.44763 59.1451" stroke="white" stroke-width="3" stroke-linecap="round" stroke-linejoin="round"/>
</svg>
