<svg width="64" height="47" viewBox="0 0 64 47" fill="none" xmlns="http://www.w3.org/2000/svg">
<path fill-rule="evenodd" clip-rule="evenodd" d="M12.5816 2.12558C9.08426 2.12558 6.24907 4.95986 6.24907 8.45612V37.1053H4.1228V8.45612C4.1228 3.78593 7.90995 0 12.5816 0H47.2572V2.12558H12.5816ZM8.27799 7.06987C8.27799 5.4621 9.58176 4.15875 11.19 4.15875H47.2572V6.28433H11.19C10.7561 6.28433 10.4043 6.63603 10.4043 7.06987V32.831C10.4043 33.2648 10.7561 33.6165 11.19 33.6165H52.3335C52.7675 33.6165 53.1193 33.2648 53.1193 32.831V12.3261H55.2456V32.831C55.2456 34.4388 53.9418 35.7421 52.3335 35.7421H11.19C9.58176 35.7421 8.27799 34.4388 8.27799 32.831V7.06987Z" fill="white"/>
<path fill-rule="evenodd" clip-rule="evenodd" d="M51.9783 0.824585H58.3225C58.9044 0.824585 59.3761 1.29724 59.3761 1.88029V7.98146H57.2689V4.40459L41.4033 20.0864C39.566 21.9023 36.6135 21.9023 34.7762 20.0863L32.0361 17.378C31.0194 16.373 29.3855 16.373 28.3687 17.378L14.6533 30.9345L13.1735 29.4314L26.8889 15.8749C28.7262 14.0589 31.6787 14.0589 33.516 15.8749L36.2561 18.5832C37.2728 19.5882 38.9067 19.5882 39.9235 18.5832L55.7541 2.93599H51.9783V0.824585ZM57.2689 36.6231V12.3879H59.3761V36.6231H57.2689ZM46.9811 31.0303V17.8111H49.0883V31.0303H46.9811ZM27.4342 31.0303V21.8786H29.5414V31.0303H27.4342ZM31.2064 31.0303V21.8786H33.3136V31.0303H31.2064ZM42.6945 31.0303V21.8786H44.8017V31.0303H42.6945ZM34.9786 31.0303V25.4376H37.0858V31.0303H34.9786ZM38.9223 31.0303V25.4376H41.0295V31.0303H38.9223ZM23.1476 31.0303V25.7766H25.2548V31.0303H23.1476ZM19.5469 31.0303V29.3356H21.6541V31.0303H19.5469ZM0 41.6765C0 39.9873 1.36663 38.618 3.05244 38.618H23.5552C24.7954 38.618 25.9858 39.1073 26.8687 39.98L26.9572 40.0674C27.4458 40.5504 28.1046 40.8212 28.7909 40.8212H35.3862C36.0725 40.8212 36.7313 40.5504 37.2199 40.0674L37.3084 39.98C38.1913 39.1073 39.3817 38.618 40.6219 38.618H60.2909C62.0584 38.618 63.4912 40.0537 63.4912 41.8247C63.4912 42.6827 63.148 43.505 62.5384 44.1076L60.99 45.638C60.107 46.5107 58.9167 47 57.6765 47H6.83043C5.86867 47 4.92989 46.7055 4.13983 46.156L1.31181 44.189C0.490096 43.6174 0 42.6788 0 41.6765ZM3.05244 40.7294C2.53041 40.7294 2.10721 41.1534 2.10721 41.6765C2.10721 41.9869 2.25898 42.2775 2.51343 42.4545L5.34146 44.4215C5.77868 44.7257 6.29819 44.8886 6.83043 44.8886H57.6765C58.3628 44.8886 59.0215 44.6179 59.5101 44.1349L61.0586 42.6044C61.2668 42.3986 61.384 42.1178 61.384 41.8247C61.384 41.2198 60.8946 40.7294 60.2909 40.7294H40.6219C39.9356 40.7294 39.2768 41.0001 38.7882 41.4831L38.6997 41.5706C37.8168 42.4433 36.6264 42.9326 35.3862 42.9326H28.7909C27.5507 42.9326 26.3603 42.4433 25.4774 41.5706L25.3889 41.4831C24.9003 41.0001 24.2415 40.7294 23.5552 40.7294H3.05244Z" fill="white"/>
</svg>
