<svg width="61" height="61" viewBox="0 0 61 61" fill="none" xmlns="http://www.w3.org/2000/svg">
<path d="M46.7866 51.1799C45.0389 51.1799 43.3627 50.4856 42.1268 49.2498C40.891 48.0139 40.1967 46.3377 40.1967 44.59C40.1967 42.8422 40.891 41.166 42.1268 39.9302C43.3627 38.6943 45.0389 38 46.7866 38" stroke="white" stroke-width="2.1" stroke-linecap="round" stroke-linejoin="round"/>
<path d="M38 43.272H45.0293" stroke="white" stroke-width="2.1" stroke-linecap="round" stroke-linejoin="round"/>
<path d="M38 45.8367H45.1243" stroke="white" stroke-width="2.1" stroke-linecap="round" stroke-linejoin="round"/>
<path d="M29 44C29 47.9782 30.5804 51.7936 33.3934 54.6066C36.2064 57.4196 40.0218 59 44 59C47.9782 59 51.7936 57.4196 54.6066 54.6066C57.4196 51.7936 59 47.9782 59 44C59 40.0218 57.4196 36.2064 54.6066 33.3934C51.7936 30.5804 47.9782 29 44 29C40.0218 29 36.2064 30.5804 33.3934 33.3934C30.5804 36.2064 29 40.0218 29 44Z" stroke="white" stroke-width="3" stroke-linecap="round" stroke-linejoin="round"/>
<path d="M10 17H36" stroke="white" stroke-width="3" stroke-linecap="round" stroke-linejoin="round"/>
<path d="M10 29H25" stroke="white" stroke-width="3" stroke-linecap="round" stroke-linejoin="round"/>
<path d="M10 40H19" stroke="white" stroke-width="3" stroke-linecap="round" stroke-linejoin="round"/>
<path d="M19.1818 51H5.81818C4.80554 51 3.83437 50.6029 3.11832 49.896C2.40227 49.1891 2 48.2304 2 47.2308V5.76923C2 4.76957 2.40227 3.81085 3.11832 3.10398C3.83437 2.39711 4.80554 2 5.81818 2H32.8738C33.8858 2.00021 34.8562 2.39698 35.572 3.10313L42.8825 10.3199C43.5979 11.0265 43.9998 11.9846 44 12.9835V20.8462" stroke="white" stroke-width="3" stroke-linecap="round" stroke-linejoin="round"/>
</svg>
