<svg width="337" height="614" viewBox="0 0 337 614" fill="none" xmlns="http://www.w3.org/2000/svg">
<path d="M-62.7629 3L-105.673 78.9431L-62.7629 154.38H24.5717L68.9962 78.9431L24.5717 3H-62.7629Z" stroke="#EFEFEF" stroke-width="5"/>
<path d="M-66.0899 154.38L-109 230.323L-66.0899 305.76H21.2446L65.6692 230.323L21.2446 154.38H-66.0899Z" stroke="#EFEFEF" stroke-width="5"/>
<path d="M67.8231 81.1855L24.0812 156.876L67.8231 232.565H155.158L199.582 157.129L155.158 81.1855H67.8231Z" stroke="#EFEFEF" stroke-width="5"/>
<path d="M199.241 4.66406L155.499 80.354L199.241 156.044H286.575L331 80.6072L286.575 4.66406H199.241Z" stroke="#EFEFEF" stroke-width="5"/>
<path d="M65.5326 232.565L20.7542 308.255L65.5326 383.945H154.937L200.414 308.509L154.937 232.565H65.5326Z" stroke="#EFEFEF" stroke-width="5"/>
<path d="M-70.2216 306L-115 381.69L-70.2216 457.38H19.1825L64.6597 381.943L19.1825 306H-70.2216Z" stroke="#EFEFEF" stroke-width="5"/>
<path d="M63.7784 384L19 459.69L63.7784 535.38H153.182L198.66 459.943L153.182 384H63.7784Z" stroke="#EFEFEF" stroke-width="5"/>
<path d="M198.778 460L154 535.69L198.778 611.38H288.182L333.66 535.943L288.182 460H198.778Z" stroke="#EFEFEF" stroke-width="5"/>
</svg>
