<svg width="580" height="433" viewBox="0 0 580 433" fill="none" xmlns="http://www.w3.org/2000/svg">
<path d="M591.193 430L639.272 344.909L591.193 260.386L493.339 260.386L443.563 344.909L493.339 430L591.193 430Z" stroke="#E6E6E6" stroke-width="5"/>
<path d="M594.921 260.386L643 175.295L594.921 90.7714L497.067 90.7714L447.291 175.295L497.067 260.386L594.921 260.386Z" stroke="#E6E6E6" stroke-width="5"/>
<path d="M444.878 342.397L493.888 257.59L444.878 172.783L347.023 172.783L297.248 257.306L347.023 342.397L444.878 342.397Z" stroke="#E6E6E6" stroke-width="5"/>
<path d="M297.63 428.136L346.641 343.329L297.63 258.522L199.776 258.522L150 343.045L199.776 428.136L297.63 428.136Z" stroke="#E6E6E6" stroke-width="5"/>
<path d="M151 342.168L199.641 258.976L150.63 174.168L52.7758 174.168L3.00007 258.692L52.7757 343.783L151 342.168Z" stroke="#E6E6E6" stroke-width="5"/>
<path d="M447.444 172.783L497.616 87.976L447.444 3.16885L347.271 3.16884L296.316 87.6924L347.271 172.783L447.444 172.783Z" stroke="#E6E6E6" stroke-width="5"/>
</svg>
