<svg width="1440" height="892" viewBox="0 0 1440 892" fill="none" xmlns="http://www.w3.org/2000/svg">
<rect width="1440" height="892" fill="#F8F8F8"/>
<path d="M-62.7629 142L-105.673 217.943L-62.7629 293.38H24.5717L68.9962 217.943L24.5717 142H-62.7629Z" stroke="#EFEFEF" stroke-width="5"/>
<path d="M-66.0899 293.38L-109 369.323L-66.0899 444.76H21.2446L65.6692 369.323L21.2446 293.38H-66.0899Z" stroke="#EFEFEF" stroke-width="5"/>
<path d="M67.8231 220.186L24.0812 295.876L67.8231 371.565H155.158L199.582 296.129L155.158 220.186H67.8231Z" stroke="#EFEFEF" stroke-width="5"/>
<path d="M199.241 143.664L155.499 219.354L199.241 295.044H286.575L331 219.607L286.575 143.664H199.241Z" stroke="#EFEFEF" stroke-width="5"/>
<path d="M65.5326 371.565L20.7542 447.255L65.5326 522.945H154.937L200.414 447.509L154.937 371.565H65.5326Z" stroke="#EFEFEF" stroke-width="5"/>
<path d="M-70.2216 445L-115 520.69L-70.2216 596.38H19.1825L64.6597 520.943L19.1825 445H-70.2216Z" stroke="#EFEFEF" stroke-width="5"/>
<path d="M63.7784 523L19 598.69L63.7784 674.38H153.182L198.66 598.943L153.182 523H63.7784Z" stroke="#EFEFEF" stroke-width="5"/>
<path d="M198.778 599L154 674.69L198.778 750.38H288.182L333.66 674.943L288.182 599H198.778Z" stroke="#EFEFEF" stroke-width="5"/>
</svg>
