<svg width="66" height="66" viewBox="0 0 66 66" fill="none" xmlns="http://www.w3.org/2000/svg">
<path d="M2.0625 23.5097L8.4425 33.2942L18.227 26.917" stroke="white" stroke-width="3" stroke-linecap="round" stroke-linejoin="round"/>
<path d="M36.4045 59.8758C40.0432 59.9121 43.653 59.2269 47.0251 57.8596C50.3973 56.4923 53.465 54.4701 56.0509 51.9099C58.6368 49.3498 60.6895 46.3024 62.0904 42.9441C63.4914 39.5857 64.2127 35.983 64.2127 32.3441C64.2127 28.7053 63.4914 25.1025 62.0904 21.7442C60.6895 18.3858 58.6368 15.3385 56.0509 12.7783C53.465 10.2182 50.3973 8.19598 47.0251 6.8287C43.6529 5.46141 40.0432 4.77614 36.4045 4.81251C32.689 4.8141 29.011 5.55573 25.5852 6.99413C22.1593 8.43252 19.0543 10.5389 16.4514 13.1902C13.8484 15.8416 11.7996 18.9848 10.4245 22.4366C9.04946 25.8883 8.37568 29.5793 8.44251 33.2943" stroke="white" stroke-width="3" stroke-linecap="round" stroke-linejoin="round"/>
<path d="M41.2063 41.381C38.6363 41.381 36.1715 40.36 34.3541 38.5427C32.5368 36.7254 31.5159 34.2606 31.5159 31.6905C31.5159 29.1204 32.5368 26.6556 34.3541 24.8383C36.1715 23.021 38.6363 22 41.2063 22" stroke="white" stroke-width="2.5" stroke-linecap="round" stroke-linejoin="round"/>
<path d="M28.2857 29.7524L38.6222 29.7524" stroke="white" stroke-width="2.5" stroke-linecap="round" stroke-linejoin="round"/>
<path d="M28.2857 33.5238L38.7619 33.5238" stroke="white" stroke-width="2.5" stroke-linecap="round" stroke-linejoin="round"/>
</svg>
